G75*
G70*
%OFA0B0*%
%FSLAX24Y24*%
%IPPOS*%
%LPD*%
%AMOC8*
5,1,8,0,0,1.08239X$1,22.5*
%
%ADD10C,0.0400*%
%ADD11C,0.0118*%
%ADD12R,0.0728X0.0217*%
%ADD13R,0.1598X0.0598*%
%ADD14R,0.0157X0.0630*%
%ADD15R,0.0827X0.0630*%
%ADD16R,0.0748X0.0748*%
%ADD17R,0.0709X0.0748*%
%ADD18R,0.0276X0.0394*%
%ADD19R,0.0394X0.0276*%
%ADD20R,0.0433X0.0354*%
%ADD21R,0.0394X0.1791*%
%ADD22R,0.1791X0.0394*%
%ADD23R,0.0394X0.1496*%
%ADD24R,0.1496X0.0394*%
%ADD25R,0.0394X0.1398*%
%ADD26R,0.1398X0.0394*%
%ADD27C,0.0100*%
%ADD28C,0.0180*%
%ADD29C,0.0160*%
%ADD30C,0.0132*%
D10*
X010271Y007750D03*
X008971Y008050D03*
D11*
X008966Y006483D02*
X008966Y006325D01*
X008769Y006325D02*
X008769Y006483D01*
X008573Y006483D02*
X008573Y006325D01*
X008376Y006325D02*
X008376Y006483D01*
X008376Y005775D02*
X008376Y005617D01*
X008573Y005617D02*
X008573Y005775D01*
X008769Y005775D02*
X008769Y005617D01*
X008966Y005617D02*
X008966Y005775D01*
D12*
X008671Y006050D03*
D13*
X013172Y005885D03*
X013172Y006850D03*
X013172Y007815D03*
X004070Y007815D03*
X004070Y006850D03*
X004070Y005885D03*
D14*
X008109Y009939D03*
X008365Y009939D03*
X008621Y009939D03*
X008877Y009939D03*
X009133Y009939D03*
D15*
X009842Y010038D03*
X007401Y010038D03*
D16*
X008109Y011042D03*
X009133Y011042D03*
D17*
X010117Y011042D03*
X007125Y011042D03*
D18*
X007126Y006400D03*
X007716Y006400D03*
X007716Y005700D03*
X007126Y005700D03*
X007126Y005100D03*
X007716Y005100D03*
D19*
X008671Y004845D03*
X008671Y004255D03*
X009671Y004705D03*
X010271Y004705D03*
X010871Y004705D03*
X010871Y005295D03*
X010271Y005295D03*
X010271Y005755D03*
X009671Y005755D03*
X009671Y005295D03*
X009671Y006345D03*
X010271Y006345D03*
X010271Y006805D03*
X010271Y007395D03*
X009571Y007105D03*
X008971Y007105D03*
X008371Y007105D03*
X007771Y007105D03*
X007771Y007695D03*
X008371Y007695D03*
X008971Y007695D03*
X009571Y007695D03*
D20*
X007121Y007715D03*
X007121Y007085D03*
D21*
X011830Y008160D03*
X005412Y003140D03*
D22*
X011131Y002441D03*
X006111Y008859D03*
D23*
X005412Y005650D03*
X011830Y005650D03*
D24*
X008621Y002441D03*
X008621Y008859D03*
D25*
X005412Y007963D03*
X011830Y003337D03*
D26*
X006308Y002441D03*
X010934Y008859D03*
D27*
X003321Y005436D02*
X003321Y001350D01*
X013921Y001350D01*
X013921Y005436D01*
X013222Y005436D01*
X013222Y005835D01*
X013122Y005835D01*
X013122Y005436D01*
X012353Y005436D01*
X012315Y005446D01*
X012281Y005466D01*
X012253Y005494D01*
X012233Y005528D01*
X012223Y005566D01*
X012223Y005835D01*
X013122Y005835D01*
X013122Y005935D01*
X012223Y005935D01*
X012223Y006204D01*
X012233Y006243D01*
X012253Y006277D01*
X012281Y006305D01*
X012315Y006324D01*
X012353Y006335D01*
X013122Y006335D01*
X013122Y005935D01*
X013222Y005935D01*
X013222Y006335D01*
X013921Y006335D01*
X013921Y006451D01*
X012332Y006451D01*
X012273Y006509D01*
X012273Y006684D01*
X011571Y006684D01*
X011467Y006674D01*
X011274Y006594D01*
X011127Y006447D01*
X011047Y006254D01*
X011037Y006150D01*
X011037Y005533D01*
X011109Y005533D01*
X011168Y005474D01*
X011168Y005116D01*
X011109Y005057D01*
X010633Y005057D01*
X010574Y005116D01*
X010574Y005129D01*
X010568Y005129D01*
X010568Y005116D01*
X010509Y005057D01*
X010033Y005057D01*
X009974Y005116D01*
X009974Y005474D01*
X010025Y005525D01*
X009974Y005576D01*
X009974Y005934D01*
X010033Y005993D01*
X010509Y005993D01*
X010568Y005934D01*
X010568Y005576D01*
X010517Y005525D01*
X010568Y005474D01*
X010568Y005461D01*
X010574Y005461D01*
X010574Y005474D01*
X010633Y005533D01*
X010705Y005533D01*
X010705Y006322D01*
X010837Y006640D01*
X010837Y006641D01*
X011081Y006884D01*
X011081Y006884D01*
X011399Y007016D01*
X011502Y007016D01*
X011502Y007016D01*
X012273Y007016D01*
X012273Y007191D01*
X012332Y007249D01*
X013921Y007249D01*
X013921Y007365D01*
X013222Y007365D01*
X013222Y007765D01*
X013122Y007765D01*
X012223Y007765D01*
X012223Y007496D01*
X012233Y007457D01*
X012253Y007423D01*
X012281Y007395D01*
X012315Y007376D01*
X012353Y007365D01*
X013122Y007365D01*
X013122Y007765D01*
X013122Y007865D01*
X013122Y008264D01*
X012353Y008264D01*
X012315Y008254D01*
X012281Y008234D01*
X012253Y008206D01*
X012233Y008172D01*
X012223Y008134D01*
X012223Y007865D01*
X013122Y007865D01*
X013222Y007865D01*
X013222Y008264D01*
X013921Y008264D01*
X013921Y011450D01*
X010618Y011450D01*
X010621Y011435D01*
X010621Y011092D01*
X010167Y011092D01*
X010167Y010992D01*
X010621Y010992D01*
X010621Y010648D01*
X010611Y010610D01*
X010591Y010576D01*
X010564Y010548D01*
X010529Y010528D01*
X010491Y010518D01*
X010167Y010518D01*
X010167Y010992D01*
X010067Y010992D01*
X009657Y010992D01*
X009183Y010992D01*
X009183Y011092D01*
X010067Y011092D01*
X010067Y010992D01*
X010067Y010518D01*
X009743Y010518D01*
X009705Y010528D01*
X009671Y010548D01*
X009643Y010576D01*
X009635Y010589D01*
X009627Y010576D01*
X009599Y010548D01*
X009565Y010528D01*
X009527Y010518D01*
X009183Y010518D01*
X009183Y010992D01*
X009083Y010992D01*
X008159Y010992D01*
X008159Y011092D01*
X008633Y011092D01*
X009083Y011092D01*
X009083Y010992D01*
X009083Y010518D01*
X008739Y010518D01*
X008701Y010528D01*
X008667Y010548D01*
X008639Y010576D01*
X008621Y010606D01*
X008621Y010606D01*
X008603Y010576D01*
X008575Y010548D01*
X008541Y010528D01*
X008503Y010518D01*
X008159Y010518D01*
X008159Y010992D01*
X008059Y010992D01*
X007175Y010992D01*
X007175Y011092D01*
X007585Y011092D01*
X008059Y011092D01*
X008059Y010992D01*
X008059Y010518D01*
X007715Y010518D01*
X007677Y010528D01*
X007643Y010548D01*
X007615Y010576D01*
X007607Y010589D01*
X007599Y010576D01*
X007571Y010548D01*
X007537Y010528D01*
X007499Y010518D01*
X007175Y010518D01*
X007175Y010992D01*
X007075Y010992D01*
X006621Y010992D01*
X006621Y010648D01*
X006631Y010610D01*
X006651Y010576D01*
X006679Y010548D01*
X006713Y010528D01*
X006751Y010518D01*
X007075Y010518D01*
X007075Y010992D01*
X007075Y011092D01*
X006621Y011092D01*
X006621Y011435D01*
X006625Y011450D01*
X003321Y011450D01*
X003321Y008264D01*
X004020Y008264D01*
X004020Y007865D01*
X004120Y007865D01*
X004120Y008264D01*
X004889Y008264D01*
X004927Y008254D01*
X004961Y008234D01*
X004989Y008206D01*
X005009Y008172D01*
X005019Y008134D01*
X005019Y007865D01*
X004120Y007865D01*
X004120Y007765D01*
X005019Y007765D01*
X005019Y007496D01*
X005009Y007457D01*
X004989Y007423D01*
X004961Y007395D01*
X004927Y007376D01*
X004889Y007365D01*
X004120Y007365D01*
X004120Y007765D01*
X004020Y007765D01*
X004020Y007365D01*
X003321Y007365D01*
X003321Y007249D01*
X004911Y007249D01*
X004969Y007191D01*
X004969Y007016D01*
X005840Y007016D01*
X005840Y007016D01*
X005933Y007016D01*
X006233Y006892D01*
X006233Y006892D01*
X006463Y006662D01*
X006463Y006662D01*
X006587Y006362D01*
X006587Y006200D01*
X006593Y006135D01*
X006643Y006014D01*
X006735Y005922D01*
X006856Y005872D01*
X006888Y005869D01*
X006888Y005938D01*
X006947Y005997D01*
X007305Y005997D01*
X007364Y005938D01*
X007364Y005462D01*
X007305Y005403D01*
X007292Y005403D01*
X007292Y005397D01*
X007305Y005397D01*
X007364Y005338D01*
X007364Y004862D01*
X007305Y004803D01*
X006947Y004803D01*
X006888Y004862D01*
X006888Y005338D01*
X006947Y005397D01*
X006960Y005397D01*
X006960Y005403D01*
X006947Y005403D01*
X006888Y005462D01*
X006888Y005534D01*
X006852Y005534D01*
X006852Y005534D01*
X006789Y005534D01*
X006544Y005635D01*
X006544Y005635D01*
X006357Y005823D01*
X006357Y005823D01*
X006255Y006068D01*
X006255Y006200D01*
X006246Y006294D01*
X006174Y006469D01*
X006040Y006603D01*
X005866Y006675D01*
X005771Y006684D01*
X004969Y006684D01*
X004969Y006509D01*
X004911Y006451D01*
X003321Y006451D01*
X003321Y006335D01*
X004020Y006335D01*
X004020Y005935D01*
X004120Y005935D01*
X005019Y005935D01*
X005019Y006204D01*
X005009Y006243D01*
X004989Y006277D01*
X004961Y006305D01*
X004927Y006324D01*
X004889Y006335D01*
X004120Y006335D01*
X004120Y005935D01*
X004120Y005835D01*
X004120Y005436D01*
X004889Y005436D01*
X004927Y005446D01*
X004961Y005466D01*
X004989Y005494D01*
X005009Y005528D01*
X005019Y005566D01*
X005019Y005835D01*
X004120Y005835D01*
X004020Y005835D01*
X004020Y005436D01*
X003321Y005436D01*
X003321Y005386D02*
X005066Y005386D01*
X005066Y005484D02*
X004979Y005484D01*
X005019Y005583D02*
X005066Y005583D01*
X005066Y005602D02*
X005066Y004882D01*
X005076Y004844D01*
X005096Y004810D01*
X005123Y004782D01*
X005158Y004762D01*
X005196Y004752D01*
X005364Y004752D01*
X005364Y005602D01*
X005066Y005602D01*
X005019Y005681D02*
X005364Y005681D01*
X005364Y005698D02*
X005364Y005602D01*
X005461Y005602D01*
X005461Y005698D01*
X005759Y005698D01*
X005759Y006418D01*
X005749Y006456D01*
X005729Y006490D01*
X005701Y006518D01*
X005667Y006538D01*
X005629Y006548D01*
X005461Y006548D01*
X005461Y005698D01*
X005364Y005698D01*
X005066Y005698D01*
X005066Y006418D01*
X005076Y006456D01*
X005096Y006490D01*
X005123Y006518D01*
X005158Y006538D01*
X005196Y006548D01*
X005364Y006548D01*
X005364Y005698D01*
X005364Y005780D02*
X005461Y005780D01*
X005461Y005878D02*
X005364Y005878D01*
X005364Y005977D02*
X005461Y005977D01*
X005461Y006075D02*
X005364Y006075D01*
X005364Y006174D02*
X005461Y006174D01*
X005461Y006272D02*
X005364Y006272D01*
X005364Y006371D02*
X005461Y006371D01*
X005461Y006469D02*
X005364Y006469D01*
X005083Y006469D02*
X004929Y006469D01*
X004969Y006568D02*
X006075Y006568D01*
X006173Y006469D02*
X005741Y006469D01*
X005759Y006371D02*
X006214Y006371D01*
X006248Y006272D02*
X005759Y006272D01*
X005759Y006174D02*
X006255Y006174D01*
X006255Y006075D02*
X005759Y006075D01*
X005759Y005977D02*
X006293Y005977D01*
X006334Y005878D02*
X005759Y005878D01*
X005759Y005780D02*
X006400Y005780D01*
X006498Y005681D02*
X005461Y005681D01*
X005461Y005602D02*
X005759Y005602D01*
X005759Y004882D01*
X005749Y004844D01*
X005729Y004810D01*
X005701Y004782D01*
X005667Y004762D01*
X005629Y004752D01*
X005461Y004752D01*
X005461Y005602D01*
X005461Y005583D02*
X005364Y005583D01*
X005364Y005484D02*
X005461Y005484D01*
X005461Y005386D02*
X005364Y005386D01*
X005364Y005287D02*
X005461Y005287D01*
X005461Y005189D02*
X005364Y005189D01*
X005364Y005090D02*
X005461Y005090D01*
X005461Y004992D02*
X005364Y004992D01*
X005364Y004893D02*
X005461Y004893D01*
X005461Y004795D02*
X005364Y004795D01*
X005111Y004795D02*
X003321Y004795D01*
X003321Y004893D02*
X005066Y004893D01*
X005066Y004992D02*
X003321Y004992D01*
X003321Y005090D02*
X005066Y005090D01*
X005066Y005189D02*
X003321Y005189D01*
X003321Y005287D02*
X005066Y005287D01*
X005066Y005780D02*
X005019Y005780D01*
X005066Y005878D02*
X004120Y005878D01*
X004120Y005780D02*
X004020Y005780D01*
X004020Y005681D02*
X004120Y005681D01*
X004120Y005583D02*
X004020Y005583D01*
X004020Y005484D02*
X004120Y005484D01*
X004120Y005977D02*
X004020Y005977D01*
X004020Y006075D02*
X004120Y006075D01*
X004120Y006174D02*
X004020Y006174D01*
X004020Y006272D02*
X004120Y006272D01*
X003321Y006371D02*
X005066Y006371D01*
X005066Y006272D02*
X004992Y006272D01*
X005019Y006174D02*
X005066Y006174D01*
X005066Y006075D02*
X005019Y006075D01*
X005019Y005977D02*
X005066Y005977D01*
X005759Y005583D02*
X006672Y005583D01*
X006888Y005484D02*
X005759Y005484D01*
X005759Y005386D02*
X006935Y005386D01*
X006888Y005287D02*
X005759Y005287D01*
X005759Y005189D02*
X006888Y005189D01*
X006888Y005090D02*
X005759Y005090D01*
X005759Y004992D02*
X006888Y004992D01*
X006888Y004893D02*
X005759Y004893D01*
X005714Y004795D02*
X007475Y004795D01*
X007486Y004783D02*
X007521Y004763D01*
X007559Y004753D01*
X007697Y004753D01*
X007697Y005081D01*
X007429Y005081D01*
X007429Y004883D01*
X007439Y004845D01*
X007459Y004811D01*
X007486Y004783D01*
X007429Y004893D02*
X007364Y004893D01*
X007364Y004992D02*
X007429Y004992D01*
X007364Y005090D02*
X007697Y005090D01*
X007697Y005081D02*
X007697Y005119D01*
X007429Y005119D01*
X007429Y005317D01*
X007439Y005355D01*
X007459Y005389D01*
X007486Y005417D01*
X007510Y005430D01*
X007479Y005462D01*
X007479Y005938D01*
X007537Y005997D01*
X007896Y005997D01*
X007954Y005938D01*
X007954Y005866D01*
X008177Y005866D01*
X008167Y005884D01*
X008157Y005922D01*
X008157Y006046D01*
X008667Y006046D01*
X008667Y006054D01*
X008157Y006054D01*
X008157Y006178D01*
X008167Y006216D01*
X008177Y006234D01*
X007954Y006234D01*
X007954Y006162D01*
X007896Y006103D01*
X007537Y006103D01*
X007479Y006162D01*
X007479Y006638D01*
X007537Y006697D01*
X007896Y006697D01*
X007954Y006638D01*
X007954Y006566D01*
X008234Y006566D01*
X008310Y006642D01*
X008367Y006642D01*
X008221Y006788D01*
X008221Y006867D01*
X008133Y006867D01*
X008075Y006925D01*
X008067Y006925D01*
X008009Y006867D01*
X007533Y006867D01*
X007475Y006925D01*
X007438Y006925D01*
X007438Y006866D01*
X007379Y006808D01*
X006863Y006808D01*
X006805Y006866D01*
X006805Y007304D01*
X006863Y007362D01*
X007379Y007362D01*
X007438Y007304D01*
X007438Y007285D01*
X007475Y007285D01*
X007533Y007343D01*
X008009Y007343D01*
X008067Y007285D01*
X008075Y007285D01*
X008133Y007343D01*
X008609Y007343D01*
X008668Y007284D01*
X008668Y006926D01*
X008609Y006867D01*
X008566Y006867D01*
X008635Y006798D01*
X008646Y006787D01*
X008721Y006862D01*
X008721Y006879D01*
X008674Y006926D01*
X008674Y007284D01*
X008733Y007343D01*
X009209Y007343D01*
X009268Y007284D01*
X009268Y007255D01*
X009274Y007255D01*
X009274Y007284D01*
X009333Y007343D01*
X009809Y007343D01*
X009868Y007284D01*
X009868Y006926D01*
X009809Y006867D01*
X009333Y006867D01*
X009274Y006926D01*
X009274Y006955D01*
X009268Y006955D01*
X009268Y006926D01*
X009209Y006867D01*
X009021Y006867D01*
X009021Y006738D01*
X008933Y006650D01*
X008925Y006642D01*
X009032Y006642D01*
X009108Y006566D01*
X009416Y006566D01*
X009433Y006583D01*
X009620Y006583D01*
X009622Y006584D01*
X009623Y006583D01*
X009909Y006583D01*
X009968Y006524D01*
X009968Y006511D01*
X009974Y006511D01*
X009974Y006524D01*
X010025Y006575D01*
X009974Y006626D01*
X009974Y006984D01*
X010033Y007043D01*
X010509Y007043D01*
X010568Y006984D01*
X010568Y006626D01*
X010517Y006575D01*
X010568Y006524D01*
X010568Y006166D01*
X010509Y006107D01*
X010033Y006107D01*
X009974Y006166D01*
X009974Y006179D01*
X009968Y006179D01*
X009968Y006166D01*
X009909Y006107D01*
X009433Y006107D01*
X009374Y006166D01*
X009374Y006234D01*
X009165Y006234D01*
X009175Y006216D01*
X009185Y006178D01*
X009185Y006054D01*
X008675Y006054D01*
X008675Y006046D01*
X009185Y006046D01*
X009185Y005922D01*
X009175Y005884D01*
X009165Y005866D01*
X009374Y005866D01*
X009374Y005934D01*
X009433Y005993D01*
X009909Y005993D01*
X009968Y005934D01*
X009968Y005576D01*
X009917Y005525D01*
X009968Y005474D01*
X009968Y005116D01*
X009909Y005057D01*
X009433Y005057D01*
X009374Y005116D01*
X009374Y005474D01*
X009425Y005525D01*
X009416Y005534D01*
X009108Y005534D01*
X009032Y005458D01*
X008919Y005458D01*
X008919Y005073D01*
X008968Y005024D01*
X008968Y004666D01*
X008909Y004607D01*
X008433Y004607D01*
X008374Y004666D01*
X008374Y005024D01*
X008433Y005083D01*
X008619Y005083D01*
X008619Y005413D01*
X008600Y005408D01*
X008573Y005408D01*
X008573Y005696D01*
X008573Y005696D01*
X008573Y005408D01*
X008545Y005408D01*
X008492Y005422D01*
X008444Y005450D01*
X008436Y005458D01*
X008310Y005458D01*
X008234Y005534D01*
X007954Y005534D01*
X007954Y005462D01*
X007923Y005430D01*
X007946Y005417D01*
X007974Y005389D01*
X007994Y005355D01*
X008004Y005317D01*
X008004Y005119D01*
X007735Y005119D01*
X007735Y005081D01*
X007735Y004753D01*
X007874Y004753D01*
X007912Y004763D01*
X007946Y004783D01*
X007974Y004811D01*
X007994Y004845D01*
X008004Y004883D01*
X008004Y005081D01*
X007735Y005081D01*
X007697Y005081D01*
X007735Y005090D02*
X008619Y005090D01*
X008619Y005189D02*
X008004Y005189D01*
X008004Y005287D02*
X008619Y005287D01*
X008619Y005386D02*
X007976Y005386D01*
X007954Y005484D02*
X008284Y005484D01*
X008573Y005484D02*
X008573Y005484D01*
X008573Y005583D02*
X008573Y005583D01*
X008573Y005681D02*
X008573Y005681D01*
X008769Y005696D02*
X008769Y004944D01*
X008671Y004845D01*
X008374Y004893D02*
X008004Y004893D01*
X008004Y004992D02*
X008374Y004992D01*
X008374Y004795D02*
X007958Y004795D01*
X007735Y004795D02*
X007697Y004795D01*
X007697Y004893D02*
X007735Y004893D01*
X007735Y004992D02*
X007697Y004992D01*
X007429Y005189D02*
X007364Y005189D01*
X007364Y005287D02*
X007429Y005287D01*
X007457Y005386D02*
X007316Y005386D01*
X007364Y005484D02*
X007479Y005484D01*
X007479Y005583D02*
X007364Y005583D01*
X007364Y005681D02*
X007479Y005681D01*
X007479Y005780D02*
X007364Y005780D01*
X007364Y005878D02*
X007479Y005878D01*
X007517Y005977D02*
X007325Y005977D01*
X007321Y006063D02*
X007356Y006083D01*
X007384Y006111D01*
X007403Y006145D01*
X007414Y006183D01*
X007414Y006381D01*
X007145Y006381D01*
X007145Y006419D01*
X007414Y006419D01*
X007414Y006617D01*
X007403Y006655D01*
X007384Y006689D01*
X007356Y006717D01*
X007321Y006737D01*
X007283Y006747D01*
X007145Y006747D01*
X007145Y006419D01*
X007107Y006419D01*
X007107Y006747D01*
X006968Y006747D01*
X006930Y006737D01*
X006896Y006717D01*
X006868Y006689D01*
X006848Y006655D01*
X006838Y006617D01*
X006838Y006419D01*
X007107Y006419D01*
X007107Y006381D01*
X007145Y006381D01*
X007145Y006053D01*
X007283Y006053D01*
X007321Y006063D01*
X007342Y006075D02*
X008157Y006075D01*
X008157Y005977D02*
X007916Y005977D01*
X007954Y005878D02*
X008170Y005878D01*
X008321Y005700D02*
X008376Y005696D01*
X008919Y005386D02*
X009374Y005386D01*
X009384Y005484D02*
X009058Y005484D01*
X008919Y005287D02*
X009374Y005287D01*
X009374Y005189D02*
X008919Y005189D01*
X008919Y005090D02*
X009400Y005090D01*
X009416Y004982D02*
X009454Y004993D01*
X009652Y004993D01*
X009652Y004724D01*
X009690Y004724D01*
X009690Y004993D01*
X009888Y004993D01*
X009926Y004982D01*
X009960Y004963D01*
X009971Y004951D01*
X009982Y004963D01*
X010016Y004982D01*
X010054Y004993D01*
X010252Y004993D01*
X010252Y004724D01*
X010290Y004724D01*
X010290Y004993D01*
X010488Y004993D01*
X010526Y004982D01*
X010560Y004963D01*
X010571Y004951D01*
X010582Y004963D01*
X010616Y004982D01*
X010654Y004993D01*
X010852Y004993D01*
X010852Y004724D01*
X010890Y004724D01*
X010890Y004993D01*
X011088Y004993D01*
X011126Y004982D01*
X011160Y004963D01*
X011188Y004935D01*
X011208Y004900D01*
X011218Y004862D01*
X011218Y004724D01*
X010890Y004724D01*
X010890Y004686D01*
X011218Y004686D01*
X011218Y004547D01*
X011208Y004509D01*
X011188Y004475D01*
X011160Y004447D01*
X011126Y004427D01*
X011088Y004417D01*
X010890Y004417D01*
X010890Y004686D01*
X010852Y004686D01*
X010290Y004686D01*
X010290Y004724D01*
X010618Y004724D01*
X010852Y004724D01*
X010852Y004686D01*
X010852Y004417D01*
X010654Y004417D01*
X010616Y004427D01*
X010582Y004447D01*
X010571Y004458D01*
X010560Y004447D01*
X010526Y004427D01*
X010488Y004417D01*
X010290Y004417D01*
X010290Y004686D01*
X010252Y004686D01*
X009924Y004686D01*
X009690Y004686D01*
X009690Y004724D01*
X010252Y004724D01*
X010252Y004686D01*
X010252Y004417D01*
X010054Y004417D01*
X010016Y004427D01*
X009982Y004447D01*
X009971Y004458D01*
X009960Y004447D01*
X009926Y004427D01*
X009888Y004417D01*
X009690Y004417D01*
X009690Y004686D01*
X009652Y004686D01*
X009324Y004686D01*
X009324Y004547D01*
X009334Y004509D01*
X009354Y004475D01*
X009382Y004447D01*
X009416Y004427D01*
X009454Y004417D01*
X009652Y004417D01*
X009652Y004686D01*
X009652Y004724D01*
X009324Y004724D01*
X009324Y004862D01*
X009334Y004900D01*
X009354Y004935D01*
X009382Y004963D01*
X009416Y004982D01*
X009451Y004992D02*
X008968Y004992D01*
X008968Y004893D02*
X009332Y004893D01*
X009324Y004795D02*
X008968Y004795D01*
X008968Y004696D02*
X009652Y004696D01*
X009690Y004696D02*
X010252Y004696D01*
X010290Y004696D02*
X010852Y004696D01*
X010890Y004696D02*
X013921Y004696D01*
X013921Y004598D02*
X011218Y004598D01*
X011202Y004499D02*
X013921Y004499D01*
X013921Y004401D02*
X009018Y004401D01*
X009018Y004412D02*
X009008Y004450D01*
X008988Y004485D01*
X008960Y004513D01*
X008926Y004532D01*
X008888Y004543D01*
X008690Y004543D01*
X008690Y004274D01*
X008652Y004274D01*
X008652Y004543D01*
X008454Y004543D01*
X008416Y004532D01*
X008382Y004513D01*
X008354Y004485D01*
X008334Y004450D01*
X008324Y004412D01*
X008324Y004274D01*
X008652Y004274D01*
X008652Y004236D01*
X008324Y004236D01*
X008324Y004097D01*
X008334Y004059D01*
X008354Y004025D01*
X008382Y003997D01*
X008416Y003977D01*
X008454Y003967D01*
X008652Y003967D01*
X008652Y004236D01*
X008690Y004236D01*
X008690Y004274D01*
X009018Y004274D01*
X009018Y004412D01*
X008974Y004499D02*
X009340Y004499D01*
X009324Y004598D02*
X003321Y004598D01*
X003321Y004696D02*
X008374Y004696D01*
X008369Y004499D02*
X003321Y004499D01*
X003321Y004401D02*
X008324Y004401D01*
X008324Y004302D02*
X003321Y004302D01*
X003321Y004204D02*
X008324Y004204D01*
X008324Y004105D02*
X005743Y004105D01*
X005749Y004094D02*
X005729Y004128D01*
X005701Y004156D01*
X005667Y004176D01*
X005629Y004186D01*
X005461Y004186D01*
X005461Y003189D01*
X005364Y003189D01*
X005364Y004186D01*
X005196Y004186D01*
X005158Y004176D01*
X005123Y004156D01*
X005096Y004128D01*
X005076Y004094D01*
X005066Y004056D01*
X005066Y003189D01*
X005364Y003189D01*
X005364Y003092D01*
X005066Y003092D01*
X005066Y002225D01*
X005076Y002187D01*
X005096Y002152D01*
X005123Y002124D01*
X005158Y002105D01*
X005196Y002094D01*
X005364Y002094D01*
X005364Y003092D01*
X005461Y003092D01*
X005461Y003189D01*
X005759Y003189D01*
X005759Y004056D01*
X005749Y004094D01*
X005759Y004007D02*
X008373Y004007D01*
X008652Y004007D02*
X008690Y004007D01*
X008690Y003967D02*
X008888Y003967D01*
X008926Y003977D01*
X008960Y003997D01*
X008988Y004025D01*
X009008Y004059D01*
X009018Y004097D01*
X009018Y004236D01*
X008690Y004236D01*
X008690Y003967D01*
X008690Y004105D02*
X008652Y004105D01*
X008652Y004204D02*
X008690Y004204D01*
X008690Y004302D02*
X008652Y004302D01*
X008652Y004401D02*
X008690Y004401D01*
X008690Y004499D02*
X008652Y004499D01*
X009018Y004302D02*
X013921Y004302D01*
X013921Y004204D02*
X009018Y004204D01*
X009018Y004105D02*
X011500Y004105D01*
X011493Y004094D02*
X011513Y004128D01*
X011541Y004156D01*
X011575Y004176D01*
X011613Y004186D01*
X011781Y004186D01*
X011781Y003385D01*
X011781Y003289D01*
X011483Y003289D01*
X011483Y002788D01*
X011179Y002788D01*
X011179Y002490D01*
X011082Y002490D01*
X011082Y002393D01*
X010085Y002393D01*
X010085Y002225D01*
X010095Y002187D01*
X010115Y002152D01*
X010143Y002124D01*
X010177Y002105D01*
X010215Y002094D01*
X011082Y002094D01*
X011082Y002393D01*
X011179Y002393D01*
X011179Y002094D01*
X012046Y002094D01*
X012084Y002105D01*
X012119Y002124D01*
X012147Y002152D01*
X012166Y002187D01*
X012177Y002225D01*
X012177Y002393D01*
X011179Y002393D01*
X011179Y002490D01*
X011607Y002490D01*
X011613Y002488D01*
X011781Y002488D01*
X011781Y002490D01*
X011878Y002490D01*
X011878Y002488D01*
X012046Y002488D01*
X012052Y002490D01*
X012177Y002490D01*
X012177Y003289D01*
X011878Y003289D01*
X011878Y003385D01*
X012177Y003385D01*
X012177Y004056D01*
X012166Y004094D01*
X012147Y004128D01*
X012119Y004156D01*
X012084Y004176D01*
X012046Y004186D01*
X011878Y004186D01*
X011878Y003385D01*
X011781Y003385D01*
X011483Y003385D01*
X011483Y004056D01*
X011493Y004094D01*
X011483Y004007D02*
X008970Y004007D01*
X009652Y004499D02*
X009690Y004499D01*
X009690Y004598D02*
X009652Y004598D01*
X009652Y004795D02*
X009690Y004795D01*
X009690Y004893D02*
X009652Y004893D01*
X009652Y004992D02*
X009690Y004992D01*
X009891Y004992D02*
X010051Y004992D01*
X010000Y005090D02*
X009942Y005090D01*
X009968Y005189D02*
X009974Y005189D01*
X009968Y005287D02*
X009974Y005287D01*
X009968Y005386D02*
X009974Y005386D01*
X009984Y005484D02*
X009958Y005484D01*
X009968Y005583D02*
X009974Y005583D01*
X009968Y005681D02*
X009974Y005681D01*
X009968Y005780D02*
X009974Y005780D01*
X009968Y005878D02*
X009974Y005878D01*
X010017Y005977D02*
X009925Y005977D01*
X009968Y006174D02*
X009974Y006174D01*
X009671Y006345D02*
X009612Y006404D01*
X009417Y006568D02*
X009107Y006568D01*
X008949Y006666D02*
X009974Y006666D01*
X009974Y006765D02*
X009021Y006765D01*
X009021Y006863D02*
X009974Y006863D01*
X009974Y006962D02*
X009868Y006962D01*
X009868Y007060D02*
X012273Y007060D01*
X012273Y007159D02*
X012133Y007159D01*
X012147Y007172D02*
X012119Y007144D01*
X012084Y007124D01*
X012046Y007114D01*
X011878Y007114D01*
X011878Y008111D01*
X011781Y008111D01*
X011781Y007114D01*
X011613Y007114D01*
X011575Y007124D01*
X011541Y007144D01*
X011513Y007172D01*
X011493Y007206D01*
X011483Y007244D01*
X011483Y008111D01*
X011781Y008111D01*
X011781Y008208D01*
X011483Y008208D01*
X011483Y008512D01*
X010982Y008512D01*
X010982Y008810D01*
X010886Y008810D01*
X010886Y008512D01*
X010215Y008512D01*
X010177Y008522D01*
X010143Y008542D01*
X010115Y008570D01*
X010095Y008604D01*
X010085Y008642D01*
X010085Y008810D01*
X010886Y008810D01*
X010886Y008907D01*
X010886Y009206D01*
X010215Y009206D01*
X010177Y009195D01*
X010143Y009176D01*
X010115Y009148D01*
X010095Y009113D01*
X010085Y009075D01*
X010085Y008907D01*
X010886Y008907D01*
X010982Y008907D01*
X010982Y009206D01*
X011781Y009206D01*
X011781Y009081D01*
X011783Y009075D01*
X011783Y008907D01*
X011781Y008907D01*
X011781Y008810D01*
X011783Y008810D01*
X011783Y008642D01*
X011781Y008636D01*
X011878Y008636D01*
X011781Y008636D02*
X011781Y008208D01*
X011878Y008208D01*
X012177Y008208D01*
X012177Y009075D01*
X012166Y009113D01*
X012147Y009148D01*
X012119Y009176D01*
X012084Y009195D01*
X012046Y009206D01*
X011878Y009206D01*
X011878Y008208D01*
X011878Y008111D01*
X012177Y008111D01*
X012177Y007244D01*
X012166Y007206D01*
X012147Y007172D01*
X012177Y007257D02*
X013921Y007257D01*
X013921Y007356D02*
X012177Y007356D01*
X012177Y007454D02*
X012235Y007454D01*
X012223Y007553D02*
X012177Y007553D01*
X012177Y007651D02*
X012223Y007651D01*
X012223Y007750D02*
X012177Y007750D01*
X012177Y007848D02*
X013122Y007848D01*
X013122Y007750D02*
X013222Y007750D01*
X013222Y007651D02*
X013122Y007651D01*
X013122Y007553D02*
X013222Y007553D01*
X013222Y007454D02*
X013122Y007454D01*
X013122Y007947D02*
X013222Y007947D01*
X013222Y008045D02*
X013122Y008045D01*
X013122Y008144D02*
X013222Y008144D01*
X013222Y008242D02*
X013122Y008242D01*
X013921Y008341D02*
X012177Y008341D01*
X012177Y008439D02*
X013921Y008439D01*
X013921Y008538D02*
X012177Y008538D01*
X012177Y008636D02*
X013921Y008636D01*
X013921Y008735D02*
X012177Y008735D01*
X012177Y008833D02*
X013921Y008833D01*
X013921Y008932D02*
X012177Y008932D01*
X012177Y009030D02*
X013921Y009030D01*
X013921Y009129D02*
X012158Y009129D01*
X011878Y009129D02*
X011781Y009129D01*
X011783Y009030D02*
X011878Y009030D01*
X011878Y008932D02*
X011783Y008932D01*
X011781Y008833D02*
X011878Y008833D01*
X011878Y008735D02*
X011783Y008735D01*
X011781Y008538D02*
X011878Y008538D01*
X011878Y008439D02*
X011781Y008439D01*
X011781Y008341D02*
X011878Y008341D01*
X011878Y008242D02*
X011781Y008242D01*
X011781Y008144D02*
X009257Y008144D01*
X009271Y008110D02*
X009225Y008220D01*
X009141Y008304D01*
X009031Y008350D01*
X008911Y008350D01*
X008801Y008304D01*
X008717Y008220D01*
X008671Y008110D01*
X008671Y007990D01*
X008706Y007906D01*
X008701Y007902D01*
X008688Y007925D01*
X008660Y007953D01*
X008626Y007973D01*
X008588Y007983D01*
X008390Y007983D01*
X008390Y007714D01*
X008352Y007714D01*
X008352Y007676D01*
X008390Y007676D01*
X008390Y007407D01*
X008588Y007407D01*
X008626Y007418D01*
X008660Y007437D01*
X008688Y007465D01*
X008701Y007489D01*
X008733Y007457D01*
X009209Y007457D01*
X009241Y007489D01*
X009254Y007465D01*
X009282Y007437D01*
X009316Y007418D01*
X009354Y007407D01*
X009552Y007407D01*
X009552Y007676D01*
X009590Y007676D01*
X009590Y007407D01*
X009788Y007407D01*
X009826Y007418D01*
X009860Y007437D01*
X009888Y007465D01*
X009908Y007500D01*
X009918Y007538D01*
X009918Y007676D01*
X009590Y007676D01*
X009590Y007714D01*
X009918Y007714D01*
X009918Y007853D01*
X009908Y007891D01*
X009888Y007925D01*
X009860Y007953D01*
X009826Y007973D01*
X009788Y007983D01*
X009590Y007983D01*
X009590Y007714D01*
X009552Y007714D01*
X009552Y007983D01*
X009354Y007983D01*
X009316Y007973D01*
X009282Y007953D01*
X009254Y007925D01*
X009241Y007902D01*
X009236Y007906D01*
X009271Y007990D01*
X009271Y008110D01*
X009271Y008045D02*
X010199Y008045D01*
X010211Y008050D02*
X010101Y008004D01*
X010017Y007920D01*
X009971Y007810D01*
X009971Y007690D01*
X010006Y007606D01*
X009974Y007574D01*
X009974Y007216D01*
X010033Y007157D01*
X010509Y007157D01*
X010568Y007216D01*
X010568Y007574D01*
X010536Y007606D01*
X010571Y007690D01*
X010571Y007810D01*
X010525Y007920D01*
X010441Y008004D01*
X010331Y008050D01*
X010211Y008050D01*
X010343Y008045D02*
X011483Y008045D01*
X011483Y007947D02*
X010499Y007947D01*
X010555Y007848D02*
X011483Y007848D01*
X011483Y007750D02*
X010571Y007750D01*
X010555Y007651D02*
X011483Y007651D01*
X011483Y007553D02*
X010568Y007553D01*
X010568Y007454D02*
X011483Y007454D01*
X011483Y007356D02*
X010568Y007356D01*
X010568Y007257D02*
X011483Y007257D01*
X011526Y007159D02*
X010510Y007159D01*
X010568Y006962D02*
X011267Y006962D01*
X011059Y006863D02*
X010568Y006863D01*
X010568Y006765D02*
X010961Y006765D01*
X010862Y006666D02*
X010568Y006666D01*
X010525Y006568D02*
X010807Y006568D01*
X010766Y006469D02*
X010568Y006469D01*
X010568Y006371D02*
X010725Y006371D01*
X010705Y006272D02*
X010568Y006272D01*
X010568Y006174D02*
X010705Y006174D01*
X010705Y006075D02*
X009185Y006075D01*
X009185Y005977D02*
X009417Y005977D01*
X009374Y005878D02*
X009172Y005878D01*
X009017Y005696D02*
X008966Y005696D01*
X009612Y005696D02*
X009671Y005755D01*
X009374Y006174D02*
X009185Y006174D01*
X009021Y006400D02*
X008966Y006404D01*
X008769Y006404D02*
X008769Y006698D01*
X008871Y006800D01*
X008871Y007005D01*
X008971Y007105D01*
X009571Y007105D01*
X009868Y007159D02*
X010032Y007159D01*
X009974Y007257D02*
X009868Y007257D01*
X009974Y007356D02*
X007386Y007356D01*
X007379Y007438D02*
X007437Y007496D01*
X007454Y007465D01*
X007482Y007437D01*
X007516Y007418D01*
X007554Y007407D01*
X007752Y007407D01*
X007752Y007676D01*
X007790Y007676D01*
X007790Y007407D01*
X007988Y007407D01*
X008026Y007418D01*
X008060Y007437D01*
X008071Y007448D01*
X008082Y007437D01*
X008116Y007418D01*
X008154Y007407D01*
X008352Y007407D01*
X008352Y007676D01*
X008118Y007676D01*
X007790Y007676D01*
X007790Y007714D01*
X008352Y007714D01*
X008352Y007983D01*
X008154Y007983D01*
X008116Y007973D01*
X008082Y007953D01*
X008071Y007942D01*
X008060Y007953D01*
X008026Y007973D01*
X007988Y007983D01*
X007790Y007983D01*
X007790Y007714D01*
X007752Y007714D01*
X007752Y007983D01*
X007554Y007983D01*
X007516Y007973D01*
X007482Y007953D01*
X007454Y007925D01*
X007438Y007896D01*
X007438Y007934D01*
X007379Y007992D01*
X006863Y007992D01*
X006830Y007959D01*
X006750Y008040D01*
X006592Y008040D01*
X006481Y007929D01*
X006481Y007771D01*
X006491Y007761D01*
X006491Y007689D01*
X006481Y007679D01*
X006481Y007521D01*
X006592Y007410D01*
X006750Y007410D01*
X006820Y007481D01*
X006863Y007438D01*
X007379Y007438D01*
X007395Y007454D02*
X007466Y007454D01*
X007752Y007454D02*
X007790Y007454D01*
X007790Y007553D02*
X007752Y007553D01*
X007752Y007651D02*
X007790Y007651D01*
X007790Y007750D02*
X007752Y007750D01*
X007752Y007848D02*
X007790Y007848D01*
X007790Y007947D02*
X007752Y007947D01*
X007476Y007947D02*
X007425Y007947D01*
X008067Y007947D02*
X008076Y007947D01*
X008352Y007947D02*
X008390Y007947D01*
X008390Y007848D02*
X008352Y007848D01*
X008352Y007750D02*
X008390Y007750D01*
X008390Y007651D02*
X008352Y007651D01*
X008352Y007553D02*
X008390Y007553D01*
X008390Y007454D02*
X008352Y007454D01*
X008677Y007454D02*
X009266Y007454D01*
X009268Y007257D02*
X009274Y007257D01*
X009552Y007454D02*
X009590Y007454D01*
X009590Y007553D02*
X009552Y007553D01*
X009552Y007651D02*
X009590Y007651D01*
X009590Y007750D02*
X009552Y007750D01*
X009552Y007848D02*
X009590Y007848D01*
X009590Y007947D02*
X009552Y007947D01*
X009276Y007947D02*
X009253Y007947D01*
X008971Y008000D02*
X008971Y007700D01*
X008689Y007947D02*
X008667Y007947D01*
X008671Y008045D02*
X005759Y008045D01*
X005759Y008011D02*
X005759Y008512D01*
X006063Y008512D01*
X006063Y008810D01*
X006160Y008810D01*
X006160Y008907D01*
X007157Y008907D01*
X007157Y009075D01*
X007147Y009113D01*
X007127Y009148D01*
X007099Y009176D01*
X007065Y009195D01*
X007027Y009206D01*
X006160Y009206D01*
X006160Y008907D01*
X006063Y008907D01*
X006063Y009206D01*
X005196Y009206D01*
X005158Y009195D01*
X005123Y009176D01*
X005096Y009148D01*
X005076Y009113D01*
X005066Y009075D01*
X005066Y008907D01*
X006063Y008907D01*
X006063Y008810D01*
X005635Y008810D01*
X005629Y008812D01*
X005461Y008812D01*
X005461Y008810D01*
X005364Y008810D01*
X005364Y008812D01*
X005196Y008812D01*
X005190Y008810D01*
X005066Y008810D01*
X005066Y008011D01*
X005364Y008011D01*
X005364Y007915D01*
X005066Y007915D01*
X005066Y007244D01*
X005076Y007206D01*
X005096Y007172D01*
X005123Y007144D01*
X005158Y007124D01*
X005196Y007114D01*
X005364Y007114D01*
X005364Y007915D01*
X005461Y007915D01*
X005461Y008011D01*
X005759Y008011D01*
X005759Y007915D02*
X005759Y007244D01*
X005749Y007206D01*
X005729Y007172D01*
X005701Y007144D01*
X005667Y007124D01*
X005629Y007114D01*
X005461Y007114D01*
X005461Y007915D01*
X005759Y007915D01*
X005759Y007848D02*
X006481Y007848D01*
X006491Y007750D02*
X005759Y007750D01*
X005759Y007651D02*
X006481Y007651D01*
X006481Y007553D02*
X005759Y007553D01*
X005759Y007454D02*
X006548Y007454D01*
X006671Y007600D02*
X006771Y007700D01*
X006771Y007750D02*
X006671Y007850D01*
X006499Y007947D02*
X005461Y007947D01*
X005364Y007947D02*
X005019Y007947D01*
X005019Y008045D02*
X005066Y008045D01*
X005066Y008144D02*
X005016Y008144D01*
X005066Y008242D02*
X004947Y008242D01*
X005066Y008341D02*
X003321Y008341D01*
X003321Y008439D02*
X005066Y008439D01*
X005066Y008538D02*
X003321Y008538D01*
X003321Y008636D02*
X005066Y008636D01*
X005066Y008735D02*
X003321Y008735D01*
X003321Y008833D02*
X006063Y008833D01*
X006160Y008833D02*
X008573Y008833D01*
X008573Y008810D02*
X008573Y008907D01*
X008573Y009206D01*
X007853Y009206D01*
X007815Y009195D01*
X007781Y009176D01*
X007753Y009148D01*
X007733Y009113D01*
X007723Y009075D01*
X007723Y008907D01*
X008573Y008907D01*
X008669Y008907D01*
X008669Y009206D01*
X008847Y009206D01*
X008781Y009271D01*
X008781Y009429D01*
X008877Y009524D01*
X008757Y009524D01*
X008749Y009532D01*
X008741Y009524D01*
X008501Y009524D01*
X008493Y009532D01*
X008485Y009524D01*
X008300Y009524D01*
X008280Y009504D01*
X008246Y009485D01*
X008208Y009474D01*
X008109Y009474D01*
X008109Y009939D01*
X008109Y009939D01*
X008109Y009474D01*
X008011Y009474D01*
X007973Y009485D01*
X007938Y009504D01*
X007910Y009532D01*
X007891Y009567D01*
X007884Y009590D01*
X007872Y009583D01*
X007834Y009573D01*
X007451Y009573D01*
X007451Y009988D01*
X007351Y009988D01*
X007351Y009573D01*
X006967Y009573D01*
X006929Y009583D01*
X006895Y009603D01*
X006867Y009631D01*
X006847Y009665D01*
X006837Y009703D01*
X006837Y009988D01*
X007351Y009988D01*
X007351Y010088D01*
X007351Y010503D01*
X006967Y010503D01*
X006929Y010493D01*
X006895Y010473D01*
X006867Y010445D01*
X006847Y010411D01*
X006837Y010373D01*
X006837Y010088D01*
X007351Y010088D01*
X007451Y010088D01*
X007451Y010503D01*
X007834Y010503D01*
X007872Y010493D01*
X007906Y010473D01*
X007934Y010445D01*
X007954Y010411D01*
X007960Y010387D01*
X007973Y010394D01*
X008011Y010404D01*
X008109Y010404D01*
X008109Y009939D01*
X008109Y009939D01*
X008109Y010404D01*
X008208Y010404D01*
X008246Y010394D01*
X008280Y010374D01*
X008300Y010354D01*
X008485Y010354D01*
X008493Y010347D01*
X008501Y010354D01*
X008741Y010354D01*
X008749Y010347D01*
X008757Y010354D01*
X008997Y010354D01*
X009005Y010347D01*
X009013Y010354D01*
X009253Y010354D01*
X009278Y010329D01*
X009278Y010373D01*
X009288Y010411D01*
X009308Y010445D01*
X009336Y010473D01*
X009370Y010493D01*
X009408Y010503D01*
X009792Y010503D01*
X009792Y010088D01*
X009892Y010088D01*
X010405Y010088D01*
X010405Y010373D01*
X010395Y010411D01*
X010375Y010445D01*
X010347Y010473D01*
X010313Y010493D01*
X010275Y010503D01*
X009892Y010503D01*
X009892Y010088D01*
X009892Y009988D01*
X010405Y009988D01*
X010405Y009703D01*
X010395Y009665D01*
X010375Y009631D01*
X010347Y009603D01*
X010313Y009583D01*
X010275Y009573D01*
X009892Y009573D01*
X009892Y009988D01*
X009792Y009988D01*
X009792Y009573D01*
X009408Y009573D01*
X009370Y009583D01*
X009336Y009603D01*
X009313Y009626D01*
X009313Y009613D01*
X009386Y009540D01*
X009400Y009540D01*
X009511Y009429D01*
X009511Y009271D01*
X009432Y009192D01*
X009461Y009176D01*
X009489Y009148D01*
X009509Y009113D01*
X009519Y009075D01*
X009519Y008907D01*
X008669Y008907D01*
X008669Y008810D01*
X008669Y008512D01*
X009389Y008512D01*
X009427Y008522D01*
X009461Y008542D01*
X009489Y008570D01*
X009509Y008604D01*
X009519Y008642D01*
X009519Y008810D01*
X008669Y008810D01*
X008573Y008810D01*
X008573Y008512D01*
X007853Y008512D01*
X007815Y008522D01*
X007781Y008542D01*
X007753Y008570D01*
X007733Y008604D01*
X007723Y008642D01*
X007723Y008810D01*
X008573Y008810D01*
X008573Y008735D02*
X008669Y008735D01*
X008669Y008833D02*
X010886Y008833D01*
X010886Y008735D02*
X010982Y008735D01*
X010982Y008636D02*
X010886Y008636D01*
X010886Y008538D02*
X010982Y008538D01*
X010982Y008932D02*
X010886Y008932D01*
X010886Y009030D02*
X010982Y009030D01*
X010982Y009129D02*
X010886Y009129D01*
X010365Y009621D02*
X013921Y009621D01*
X013921Y009523D02*
X009417Y009523D01*
X009511Y009424D02*
X013921Y009424D01*
X013921Y009326D02*
X009511Y009326D01*
X009467Y009227D02*
X013921Y009227D01*
X013921Y009720D02*
X010405Y009720D01*
X010405Y009818D02*
X013921Y009818D01*
X013921Y009917D02*
X010405Y009917D01*
X010405Y010114D02*
X013921Y010114D01*
X013921Y010212D02*
X010405Y010212D01*
X010405Y010311D02*
X013921Y010311D01*
X013921Y010409D02*
X010395Y010409D01*
X010609Y010606D02*
X013921Y010606D01*
X013921Y010508D02*
X003321Y010508D01*
X003321Y010606D02*
X006633Y010606D01*
X006621Y010705D02*
X003321Y010705D01*
X003321Y010803D02*
X006621Y010803D01*
X006621Y010902D02*
X003321Y010902D01*
X003321Y011000D02*
X007075Y011000D01*
X007075Y010902D02*
X007175Y010902D01*
X007175Y011000D02*
X008059Y011000D01*
X008059Y010902D02*
X008159Y010902D01*
X008159Y011000D02*
X009083Y011000D01*
X009083Y010902D02*
X009183Y010902D01*
X009183Y011000D02*
X010067Y011000D01*
X010067Y010902D02*
X010167Y010902D01*
X010167Y011000D02*
X013921Y011000D01*
X013921Y010902D02*
X010621Y010902D01*
X010621Y010803D02*
X013921Y010803D01*
X013921Y010705D02*
X010621Y010705D01*
X010621Y011099D02*
X013921Y011099D01*
X013921Y011197D02*
X010621Y011197D01*
X010621Y011296D02*
X013921Y011296D01*
X013921Y011394D02*
X010621Y011394D01*
X010167Y010803D02*
X010067Y010803D01*
X010067Y010705D02*
X010167Y010705D01*
X010167Y010606D02*
X010067Y010606D01*
X009892Y010409D02*
X009792Y010409D01*
X009792Y010311D02*
X009892Y010311D01*
X009892Y010212D02*
X009792Y010212D01*
X009792Y010114D02*
X009892Y010114D01*
X009892Y010015D02*
X013921Y010015D01*
X012295Y008242D02*
X012177Y008242D01*
X012226Y008144D02*
X011878Y008144D01*
X011878Y008045D02*
X011781Y008045D01*
X011781Y007947D02*
X011878Y007947D01*
X011878Y007848D02*
X011781Y007848D01*
X011781Y007750D02*
X011878Y007750D01*
X011878Y007651D02*
X011781Y007651D01*
X011781Y007553D02*
X011878Y007553D01*
X011878Y007454D02*
X011781Y007454D01*
X011781Y007356D02*
X011878Y007356D01*
X011878Y007257D02*
X011781Y007257D01*
X011781Y007159D02*
X011878Y007159D01*
X012273Y006666D02*
X011448Y006666D01*
X011541Y006518D02*
X011575Y006538D01*
X011613Y006548D01*
X011781Y006548D01*
X011781Y005698D01*
X011781Y005602D01*
X011483Y005602D01*
X011483Y004882D01*
X011493Y004844D01*
X011513Y004810D01*
X011541Y004782D01*
X011575Y004762D01*
X011613Y004752D01*
X011781Y004752D01*
X011781Y005602D01*
X011878Y005602D01*
X011878Y005698D01*
X012177Y005698D01*
X012177Y006418D01*
X012166Y006456D01*
X012147Y006490D01*
X012119Y006518D01*
X012084Y006538D01*
X012046Y006548D01*
X011878Y006548D01*
X011878Y005698D01*
X011781Y005698D01*
X011483Y005698D01*
X011483Y006418D01*
X011493Y006456D01*
X011513Y006490D01*
X011541Y006518D01*
X011501Y006469D02*
X011149Y006469D01*
X011095Y006371D02*
X011483Y006371D01*
X011483Y006272D02*
X011055Y006272D01*
X011039Y006174D02*
X011483Y006174D01*
X011483Y006075D02*
X011037Y006075D01*
X011037Y005977D02*
X011483Y005977D01*
X011483Y005878D02*
X011037Y005878D01*
X011037Y005780D02*
X011483Y005780D01*
X011483Y005583D02*
X011037Y005583D01*
X011037Y005681D02*
X011781Y005681D01*
X011878Y005681D02*
X012223Y005681D01*
X012177Y005602D02*
X011878Y005602D01*
X011878Y004752D01*
X012046Y004752D01*
X012084Y004762D01*
X012119Y004782D01*
X012147Y004810D01*
X012166Y004844D01*
X012177Y004882D01*
X012177Y005602D01*
X012177Y005583D02*
X012223Y005583D01*
X012263Y005484D02*
X012177Y005484D01*
X012177Y005386D02*
X013921Y005386D01*
X013921Y005287D02*
X012177Y005287D01*
X012177Y005189D02*
X013921Y005189D01*
X013921Y005090D02*
X012177Y005090D01*
X012177Y004992D02*
X013921Y004992D01*
X013921Y004893D02*
X012177Y004893D01*
X012131Y004795D02*
X013921Y004795D01*
X013921Y004105D02*
X012160Y004105D01*
X012177Y004007D02*
X013921Y004007D01*
X013921Y003908D02*
X012177Y003908D01*
X012177Y003810D02*
X013921Y003810D01*
X013921Y003711D02*
X012177Y003711D01*
X012177Y003613D02*
X013921Y003613D01*
X013921Y003514D02*
X012177Y003514D01*
X012177Y003416D02*
X013921Y003416D01*
X013921Y003317D02*
X011878Y003317D01*
X011781Y003317D02*
X005759Y003317D01*
X005759Y003219D02*
X011483Y003219D01*
X011483Y003120D02*
X005461Y003120D01*
X005461Y003092D02*
X005759Y003092D01*
X005759Y002788D01*
X006260Y002788D01*
X006260Y002490D01*
X006356Y002490D01*
X006356Y002788D01*
X007027Y002788D01*
X007065Y002778D01*
X007099Y002758D01*
X007127Y002730D01*
X007147Y002696D01*
X007157Y002658D01*
X007157Y002490D01*
X006357Y002490D01*
X006357Y002393D01*
X007157Y002393D01*
X007157Y002225D01*
X007147Y002187D01*
X007127Y002152D01*
X007099Y002124D01*
X007065Y002105D01*
X007027Y002094D01*
X006356Y002094D01*
X006356Y002393D01*
X006260Y002393D01*
X006260Y002094D01*
X005461Y002094D01*
X005461Y002219D01*
X005459Y002225D01*
X005459Y002393D01*
X005461Y002393D01*
X005461Y002490D01*
X005459Y002490D01*
X005459Y002658D01*
X005461Y002664D01*
X005461Y003092D01*
X005461Y003022D02*
X005364Y003022D01*
X005364Y003120D02*
X003321Y003120D01*
X003321Y003022D02*
X005066Y003022D01*
X005066Y002923D02*
X003321Y002923D01*
X003321Y002825D02*
X005066Y002825D01*
X005066Y002726D02*
X003321Y002726D01*
X003321Y002628D02*
X005066Y002628D01*
X005066Y002529D02*
X003321Y002529D01*
X003321Y002431D02*
X005066Y002431D01*
X005066Y002332D02*
X003321Y002332D01*
X003321Y002234D02*
X005066Y002234D01*
X005113Y002135D02*
X003321Y002135D01*
X003321Y002037D02*
X013921Y002037D01*
X013921Y002135D02*
X012129Y002135D01*
X012177Y002234D02*
X013921Y002234D01*
X013921Y002332D02*
X012177Y002332D01*
X012177Y002529D02*
X013921Y002529D01*
X013921Y002431D02*
X011179Y002431D01*
X011082Y002431D02*
X008669Y002431D01*
X008669Y002393D02*
X008669Y002490D01*
X008573Y002490D01*
X008573Y002788D01*
X007853Y002788D01*
X007815Y002778D01*
X007781Y002758D01*
X007753Y002730D01*
X007733Y002696D01*
X007723Y002658D01*
X007723Y002490D01*
X008573Y002490D01*
X008573Y002393D01*
X008669Y002393D01*
X008669Y002094D01*
X009389Y002094D01*
X009427Y002105D01*
X009461Y002124D01*
X009489Y002152D01*
X009509Y002187D01*
X009519Y002225D01*
X009519Y002393D01*
X008669Y002393D01*
X008669Y002332D02*
X008573Y002332D01*
X008573Y002393D02*
X008573Y002094D01*
X007853Y002094D01*
X007815Y002105D01*
X007781Y002124D01*
X007753Y002152D01*
X007733Y002187D01*
X007723Y002225D01*
X007723Y002393D01*
X008573Y002393D01*
X008573Y002431D02*
X006357Y002431D01*
X006356Y002529D02*
X006260Y002529D01*
X006260Y002628D02*
X006356Y002628D01*
X006356Y002726D02*
X006260Y002726D01*
X006260Y002332D02*
X006356Y002332D01*
X006356Y002234D02*
X006260Y002234D01*
X006260Y002135D02*
X006356Y002135D01*
X007110Y002135D02*
X007770Y002135D01*
X007723Y002234D02*
X007157Y002234D01*
X007157Y002332D02*
X007723Y002332D01*
X007723Y002529D02*
X007157Y002529D01*
X007157Y002628D02*
X007723Y002628D01*
X007751Y002726D02*
X007129Y002726D01*
X005759Y002825D02*
X011483Y002825D01*
X011483Y002923D02*
X005759Y002923D01*
X005759Y003022D02*
X011483Y003022D01*
X011179Y002726D02*
X011082Y002726D01*
X011082Y002788D02*
X010215Y002788D01*
X010177Y002778D01*
X010143Y002758D01*
X010115Y002730D01*
X010095Y002696D01*
X010085Y002658D01*
X010085Y002490D01*
X011082Y002490D01*
X011082Y002788D01*
X011082Y002628D02*
X011179Y002628D01*
X011179Y002529D02*
X011082Y002529D01*
X011082Y002332D02*
X011179Y002332D01*
X011179Y002234D02*
X011082Y002234D01*
X011082Y002135D02*
X011179Y002135D01*
X010133Y002135D02*
X009472Y002135D01*
X009519Y002234D02*
X010085Y002234D01*
X010085Y002332D02*
X009519Y002332D01*
X009519Y002490D02*
X009519Y002658D01*
X009509Y002696D01*
X009489Y002730D01*
X009461Y002758D01*
X009427Y002778D01*
X009389Y002788D01*
X008669Y002788D01*
X008669Y002490D01*
X009519Y002490D01*
X009519Y002529D02*
X010085Y002529D01*
X010085Y002628D02*
X009519Y002628D01*
X009492Y002726D02*
X010113Y002726D01*
X008669Y002726D02*
X008573Y002726D01*
X008573Y002628D02*
X008669Y002628D01*
X008669Y002529D02*
X008573Y002529D01*
X008573Y002234D02*
X008669Y002234D01*
X008669Y002135D02*
X008573Y002135D01*
X005759Y003416D02*
X011483Y003416D01*
X011483Y003514D02*
X005759Y003514D01*
X005759Y003613D02*
X011483Y003613D01*
X011483Y003711D02*
X005759Y003711D01*
X005759Y003810D02*
X011483Y003810D01*
X011483Y003908D02*
X005759Y003908D01*
X005461Y003908D02*
X005364Y003908D01*
X005364Y003810D02*
X005461Y003810D01*
X005461Y003711D02*
X005364Y003711D01*
X005364Y003613D02*
X005461Y003613D01*
X005461Y003514D02*
X005364Y003514D01*
X005364Y003416D02*
X005461Y003416D01*
X005461Y003317D02*
X005364Y003317D01*
X005364Y003219D02*
X005461Y003219D01*
X005066Y003219D02*
X003321Y003219D01*
X003321Y003317D02*
X005066Y003317D01*
X005066Y003416D02*
X003321Y003416D01*
X003321Y003514D02*
X005066Y003514D01*
X005066Y003613D02*
X003321Y003613D01*
X003321Y003711D02*
X005066Y003711D01*
X005066Y003810D02*
X003321Y003810D01*
X003321Y003908D02*
X005066Y003908D01*
X005066Y004007D02*
X003321Y004007D01*
X003321Y004105D02*
X005082Y004105D01*
X005364Y004105D02*
X005461Y004105D01*
X005461Y004007D02*
X005364Y004007D01*
X005364Y002923D02*
X005461Y002923D01*
X005461Y002825D02*
X005364Y002825D01*
X005364Y002726D02*
X005461Y002726D01*
X005459Y002628D02*
X005364Y002628D01*
X005364Y002529D02*
X005459Y002529D01*
X005461Y002431D02*
X005364Y002431D01*
X005364Y002332D02*
X005459Y002332D01*
X005459Y002234D02*
X005364Y002234D01*
X005364Y002135D02*
X005461Y002135D01*
X003321Y001938D02*
X013921Y001938D01*
X013921Y001840D02*
X003321Y001840D01*
X003321Y001741D02*
X013921Y001741D01*
X013921Y001643D02*
X003321Y001643D01*
X003321Y001544D02*
X013921Y001544D01*
X013921Y001446D02*
X003321Y001446D01*
X006842Y005878D02*
X006888Y005878D01*
X006926Y005977D02*
X006681Y005977D01*
X006618Y006075D02*
X006910Y006075D01*
X006896Y006083D02*
X006930Y006063D01*
X006968Y006053D01*
X007107Y006053D01*
X007107Y006381D01*
X006838Y006381D01*
X006838Y006183D01*
X006848Y006145D01*
X006868Y006111D01*
X006896Y006083D01*
X006841Y006174D02*
X006590Y006174D01*
X006587Y006272D02*
X006838Y006272D01*
X006838Y006371D02*
X006584Y006371D01*
X006543Y006469D02*
X006838Y006469D01*
X006838Y006568D02*
X006502Y006568D01*
X006459Y006666D02*
X006855Y006666D01*
X006808Y006863D02*
X006262Y006863D01*
X006360Y006765D02*
X008244Y006765D01*
X008221Y006863D02*
X007434Y006863D01*
X007397Y006666D02*
X007506Y006666D01*
X007479Y006568D02*
X007414Y006568D01*
X007414Y006469D02*
X007479Y006469D01*
X007479Y006371D02*
X007414Y006371D01*
X007414Y006272D02*
X007479Y006272D01*
X007479Y006174D02*
X007411Y006174D01*
X007145Y006174D02*
X007107Y006174D01*
X007107Y006272D02*
X007145Y006272D01*
X007145Y006371D02*
X007107Y006371D01*
X007107Y006469D02*
X007145Y006469D01*
X007145Y006568D02*
X007107Y006568D01*
X007107Y006666D02*
X007145Y006666D01*
X006805Y006962D02*
X006065Y006962D01*
X005887Y006666D02*
X004969Y006666D01*
X004969Y007060D02*
X006805Y007060D01*
X006805Y007159D02*
X005716Y007159D01*
X005759Y007257D02*
X006805Y007257D01*
X006856Y007356D02*
X005759Y007356D01*
X005461Y007356D02*
X005364Y007356D01*
X005364Y007454D02*
X005461Y007454D01*
X005461Y007553D02*
X005364Y007553D01*
X005364Y007651D02*
X005461Y007651D01*
X005461Y007750D02*
X005364Y007750D01*
X005364Y007848D02*
X005461Y007848D01*
X005066Y007848D02*
X004120Y007848D01*
X004120Y007750D02*
X004020Y007750D01*
X004020Y007651D02*
X004120Y007651D01*
X004120Y007553D02*
X004020Y007553D01*
X004020Y007454D02*
X004120Y007454D01*
X004120Y007947D02*
X004020Y007947D01*
X004020Y008045D02*
X004120Y008045D01*
X004120Y008144D02*
X004020Y008144D01*
X004020Y008242D02*
X004120Y008242D01*
X003321Y008932D02*
X005066Y008932D01*
X005066Y009030D02*
X003321Y009030D01*
X003321Y009129D02*
X005084Y009129D01*
X005759Y008439D02*
X011483Y008439D01*
X011483Y008341D02*
X009054Y008341D01*
X008888Y008341D02*
X005759Y008341D01*
X005759Y008242D02*
X008739Y008242D01*
X008685Y008144D02*
X005759Y008144D01*
X006063Y008538D02*
X006160Y008538D01*
X006160Y008512D02*
X007027Y008512D01*
X007065Y008522D01*
X007099Y008542D01*
X007127Y008570D01*
X007147Y008604D01*
X007157Y008642D01*
X007157Y008810D01*
X006160Y008810D01*
X006160Y008512D01*
X006160Y008636D02*
X006063Y008636D01*
X006063Y008735D02*
X006160Y008735D01*
X006160Y008932D02*
X006063Y008932D01*
X006063Y009030D02*
X006160Y009030D01*
X006160Y009129D02*
X006063Y009129D01*
X006877Y009621D02*
X003321Y009621D01*
X003321Y009523D02*
X007920Y009523D01*
X008109Y009523D02*
X008109Y009523D01*
X008109Y009621D02*
X008109Y009621D01*
X008109Y009720D02*
X008109Y009720D01*
X008109Y009818D02*
X008109Y009818D01*
X008109Y009917D02*
X008109Y009917D01*
X008109Y010015D02*
X008109Y010015D01*
X008109Y010114D02*
X008109Y010114D01*
X008109Y010212D02*
X008109Y010212D01*
X008109Y010311D02*
X008109Y010311D01*
X007954Y010409D02*
X009288Y010409D01*
X009183Y010606D02*
X009083Y010606D01*
X009083Y010705D02*
X009183Y010705D01*
X009183Y010803D02*
X009083Y010803D01*
X008159Y010803D02*
X008059Y010803D01*
X008059Y010705D02*
X008159Y010705D01*
X008159Y010606D02*
X008059Y010606D01*
X007451Y010409D02*
X007351Y010409D01*
X007351Y010311D02*
X007451Y010311D01*
X007451Y010212D02*
X007351Y010212D01*
X007351Y010114D02*
X007451Y010114D01*
X007351Y010015D02*
X003321Y010015D01*
X003321Y009917D02*
X006837Y009917D01*
X006837Y009818D02*
X003321Y009818D01*
X003321Y009720D02*
X006837Y009720D01*
X007351Y009720D02*
X007451Y009720D01*
X007451Y009818D02*
X007351Y009818D01*
X007351Y009917D02*
X007451Y009917D01*
X007451Y009621D02*
X007351Y009621D01*
X007138Y009129D02*
X007742Y009129D01*
X007723Y009030D02*
X007157Y009030D01*
X007157Y008932D02*
X007723Y008932D01*
X007723Y008735D02*
X007157Y008735D01*
X007155Y008636D02*
X007725Y008636D01*
X007788Y008538D02*
X007092Y008538D01*
X006847Y007454D02*
X006794Y007454D01*
X007926Y006666D02*
X008343Y006666D01*
X008235Y006568D02*
X007954Y006568D01*
X008321Y006400D02*
X008376Y006404D01*
X008573Y006404D02*
X008573Y006648D01*
X008371Y006850D01*
X008371Y007105D01*
X008668Y007060D02*
X008674Y007060D01*
X008668Y006962D02*
X008674Y006962D01*
X008721Y006863D02*
X008570Y006863D01*
X008668Y007159D02*
X008674Y007159D01*
X008668Y007257D02*
X008674Y007257D01*
X009877Y007454D02*
X009974Y007454D01*
X009974Y007553D02*
X009918Y007553D01*
X009918Y007651D02*
X009987Y007651D01*
X009971Y007750D02*
X009918Y007750D01*
X009918Y007848D02*
X009987Y007848D01*
X010043Y007947D02*
X009867Y007947D01*
X010271Y007700D02*
X010271Y007400D01*
X010017Y006568D02*
X009925Y006568D01*
X010525Y005977D02*
X010705Y005977D01*
X010705Y005878D02*
X010568Y005878D01*
X010568Y005780D02*
X010705Y005780D01*
X010705Y005681D02*
X010568Y005681D01*
X010568Y005583D02*
X010705Y005583D01*
X010584Y005484D02*
X010558Y005484D01*
X010542Y005090D02*
X010600Y005090D01*
X010651Y004992D02*
X010491Y004992D01*
X010290Y004992D02*
X010252Y004992D01*
X010252Y004893D02*
X010290Y004893D01*
X010290Y004795D02*
X010252Y004795D01*
X010252Y004598D02*
X010290Y004598D01*
X010290Y004499D02*
X010252Y004499D01*
X010852Y004499D02*
X010890Y004499D01*
X010890Y004598D02*
X010852Y004598D01*
X010852Y004795D02*
X010890Y004795D01*
X010890Y004893D02*
X010852Y004893D01*
X010852Y004992D02*
X010890Y004992D01*
X011091Y004992D02*
X011483Y004992D01*
X011483Y005090D02*
X011142Y005090D01*
X011168Y005189D02*
X011483Y005189D01*
X011483Y005287D02*
X011168Y005287D01*
X011168Y005386D02*
X011483Y005386D01*
X011483Y005484D02*
X011158Y005484D01*
X011210Y004893D02*
X011483Y004893D01*
X011528Y004795D02*
X011218Y004795D01*
X011781Y004795D02*
X011878Y004795D01*
X011878Y004893D02*
X011781Y004893D01*
X011781Y004992D02*
X011878Y004992D01*
X011878Y005090D02*
X011781Y005090D01*
X011781Y005189D02*
X011878Y005189D01*
X011878Y005287D02*
X011781Y005287D01*
X011781Y005386D02*
X011878Y005386D01*
X011878Y005484D02*
X011781Y005484D01*
X011781Y005583D02*
X011878Y005583D01*
X011878Y005780D02*
X011781Y005780D01*
X011781Y005878D02*
X011878Y005878D01*
X011878Y005977D02*
X011781Y005977D01*
X011781Y006075D02*
X011878Y006075D01*
X011878Y006174D02*
X011781Y006174D01*
X011781Y006272D02*
X011878Y006272D01*
X011878Y006371D02*
X011781Y006371D01*
X011781Y006469D02*
X011878Y006469D01*
X012159Y006469D02*
X012313Y006469D01*
X012273Y006568D02*
X011248Y006568D01*
X012177Y006371D02*
X013921Y006371D01*
X013222Y006272D02*
X013122Y006272D01*
X013122Y006174D02*
X013222Y006174D01*
X013222Y006075D02*
X013122Y006075D01*
X013122Y005977D02*
X013222Y005977D01*
X013122Y005878D02*
X012177Y005878D01*
X012177Y005780D02*
X012223Y005780D01*
X012223Y005977D02*
X012177Y005977D01*
X012177Y006075D02*
X012223Y006075D01*
X012223Y006174D02*
X012177Y006174D01*
X012177Y006272D02*
X012250Y006272D01*
X013122Y005780D02*
X013222Y005780D01*
X013222Y005681D02*
X013122Y005681D01*
X013122Y005583D02*
X013222Y005583D01*
X013222Y005484D02*
X013122Y005484D01*
X011878Y004105D02*
X011781Y004105D01*
X011781Y004007D02*
X011878Y004007D01*
X011878Y003908D02*
X011781Y003908D01*
X011781Y003810D02*
X011878Y003810D01*
X011878Y003711D02*
X011781Y003711D01*
X011781Y003613D02*
X011878Y003613D01*
X011878Y003514D02*
X011781Y003514D01*
X011781Y003416D02*
X011878Y003416D01*
X012177Y003219D02*
X013921Y003219D01*
X013921Y003120D02*
X012177Y003120D01*
X012177Y003022D02*
X013921Y003022D01*
X013921Y002923D02*
X012177Y002923D01*
X012177Y002825D02*
X013921Y002825D01*
X013921Y002726D02*
X012177Y002726D01*
X012177Y002628D02*
X013921Y002628D01*
X008157Y006174D02*
X007954Y006174D01*
X007145Y006075D02*
X007107Y006075D01*
X005461Y007159D02*
X005364Y007159D01*
X005364Y007257D02*
X005461Y007257D01*
X005109Y007159D02*
X004969Y007159D01*
X005066Y007257D02*
X003321Y007257D01*
X003321Y007356D02*
X005066Y007356D01*
X005066Y007454D02*
X005007Y007454D01*
X005019Y007553D02*
X005066Y007553D01*
X005066Y007651D02*
X005019Y007651D01*
X005019Y007750D02*
X005066Y007750D01*
X003321Y009227D02*
X008825Y009227D01*
X008781Y009326D02*
X003321Y009326D01*
X003321Y009424D02*
X008781Y009424D01*
X008875Y009523D02*
X008298Y009523D01*
X008573Y009129D02*
X008669Y009129D01*
X008669Y009030D02*
X008573Y009030D01*
X008573Y008932D02*
X008669Y008932D01*
X008669Y008636D02*
X008573Y008636D01*
X008573Y008538D02*
X008669Y008538D01*
X009203Y008242D02*
X011483Y008242D01*
X012177Y008045D02*
X012223Y008045D01*
X012223Y007947D02*
X012177Y007947D01*
X010151Y008538D02*
X009454Y008538D01*
X009517Y008636D02*
X010087Y008636D01*
X010085Y008735D02*
X009519Y008735D01*
X009519Y008932D02*
X010085Y008932D01*
X010085Y009030D02*
X009519Y009030D01*
X009500Y009129D02*
X010104Y009129D01*
X009892Y009621D02*
X009792Y009621D01*
X009792Y009720D02*
X009892Y009720D01*
X009892Y009818D02*
X009792Y009818D01*
X009792Y009917D02*
X009892Y009917D01*
X009318Y009621D02*
X009313Y009621D01*
X007175Y010606D02*
X007075Y010606D01*
X007075Y010705D02*
X007175Y010705D01*
X007175Y010803D02*
X007075Y010803D01*
X006847Y010409D02*
X003321Y010409D01*
X003321Y010311D02*
X006837Y010311D01*
X006837Y010212D02*
X003321Y010212D01*
X003321Y010114D02*
X006837Y010114D01*
X006621Y011099D02*
X003321Y011099D01*
X003321Y011197D02*
X006621Y011197D01*
X006621Y011296D02*
X003321Y011296D01*
X003321Y011394D02*
X006621Y011394D01*
D28*
X006121Y011150D03*
X005621Y011150D03*
X005121Y011150D03*
X004621Y011150D03*
X004121Y011150D03*
X003621Y011150D03*
X003621Y010650D03*
X003621Y010150D03*
X003621Y009650D03*
X003621Y009150D03*
X003621Y008650D03*
X004121Y008650D03*
X004621Y008650D03*
X004621Y009150D03*
X004621Y009650D03*
X005121Y009650D03*
X005621Y009650D03*
X006121Y009650D03*
X006121Y010150D03*
X006121Y010650D03*
X008971Y009350D03*
X009321Y009350D03*
X009371Y008400D03*
X008871Y008400D03*
X008371Y008400D03*
X007871Y008400D03*
X007371Y008400D03*
X006871Y008400D03*
X006371Y008400D03*
X005871Y008400D03*
X005871Y007900D03*
X005871Y007400D03*
X005821Y007100D03*
X005421Y007100D03*
X005021Y007100D03*
X005021Y006600D03*
X005421Y006600D03*
X005871Y006400D03*
X006121Y006150D03*
X005871Y005900D03*
X006221Y005850D03*
X006421Y005600D03*
X006771Y005450D03*
X006771Y006050D03*
X006671Y006400D03*
X006521Y006750D03*
X006221Y007000D03*
X006671Y007600D03*
X006671Y007850D03*
X007921Y006050D03*
X009421Y006050D03*
X010621Y006200D03*
X010721Y006650D03*
X011021Y006950D03*
X011371Y007100D03*
X011371Y007400D03*
X011821Y007100D03*
X012171Y007100D03*
X012171Y006600D03*
X011821Y006600D03*
X011371Y006400D03*
X011121Y006150D03*
X011371Y005900D03*
X011121Y005600D03*
X011371Y005400D03*
X011371Y004900D03*
X011371Y004400D03*
X011371Y003900D03*
X011371Y003400D03*
X011371Y002900D03*
X010871Y002900D03*
X010371Y002900D03*
X009871Y002900D03*
X009371Y002900D03*
X008871Y002900D03*
X008371Y002900D03*
X007871Y002900D03*
X007371Y002900D03*
X006871Y002900D03*
X006371Y002900D03*
X005871Y002900D03*
X005871Y003400D03*
X005871Y003900D03*
X005871Y004400D03*
X005871Y004900D03*
X005871Y005400D03*
X004621Y005150D03*
X004121Y005150D03*
X003621Y005150D03*
X003621Y004650D03*
X003621Y004150D03*
X003621Y003650D03*
X003621Y003150D03*
X003621Y002650D03*
X003621Y002150D03*
X003621Y001650D03*
X004121Y001650D03*
X004621Y001650D03*
X005121Y001650D03*
X005621Y001650D03*
X006121Y001650D03*
X006621Y001650D03*
X007121Y001650D03*
X007621Y001650D03*
X008121Y001650D03*
X008621Y001650D03*
X009121Y001650D03*
X009621Y001650D03*
X010121Y001650D03*
X010621Y001650D03*
X011121Y001650D03*
X011621Y001650D03*
X012121Y001650D03*
X012621Y001650D03*
X013121Y001650D03*
X013621Y001650D03*
X013621Y002150D03*
X013621Y002650D03*
X013621Y003150D03*
X013621Y003650D03*
X013621Y004150D03*
X013621Y004650D03*
X013621Y005150D03*
X013121Y005150D03*
X012621Y005150D03*
X012621Y004650D03*
X012621Y004150D03*
X012621Y003650D03*
X012621Y003150D03*
X012621Y002650D03*
X010621Y005600D03*
X011371Y007900D03*
X011371Y008400D03*
X010871Y008400D03*
X010371Y008400D03*
X009871Y008400D03*
X011121Y009650D03*
X011621Y009650D03*
X012121Y009650D03*
X012621Y009650D03*
X012621Y009150D03*
X012621Y008650D03*
X013121Y008650D03*
X013621Y008650D03*
X013621Y009150D03*
X013621Y009650D03*
X013621Y010150D03*
X013621Y010650D03*
X013621Y011150D03*
X013121Y011150D03*
X012621Y011150D03*
X012121Y011150D03*
X011621Y011150D03*
X011121Y011150D03*
X011121Y010650D03*
X011121Y010150D03*
X004621Y004650D03*
X004621Y004150D03*
X004621Y003650D03*
X004621Y003150D03*
X004621Y002650D03*
D29*
X007121Y007085D02*
X007121Y007105D01*
X007771Y007105D01*
X008371Y007105D01*
X007121Y007715D02*
X006671Y007715D01*
X006671Y007600D01*
X006671Y007850D01*
X008971Y009350D02*
X009321Y009350D01*
X009133Y009538D01*
X009133Y009939D01*
X009133Y009512D02*
X008971Y009350D01*
D30*
X010271Y006805D02*
X010271Y006345D01*
X009671Y006345D01*
X009621Y006400D02*
X009612Y006404D01*
X009621Y006400D02*
X009021Y006400D01*
X008321Y006400D02*
X007716Y006400D01*
X006921Y005700D02*
X006877Y005702D01*
X006834Y005708D01*
X006792Y005717D01*
X006750Y005730D01*
X006710Y005747D01*
X006671Y005767D01*
X006634Y005790D01*
X006600Y005817D01*
X006567Y005846D01*
X006538Y005879D01*
X006511Y005913D01*
X006488Y005950D01*
X006468Y005989D01*
X006451Y006029D01*
X006438Y006071D01*
X006429Y006113D01*
X006423Y006156D01*
X006421Y006200D01*
X006419Y006249D01*
X006414Y006297D01*
X006405Y006345D01*
X006392Y006392D01*
X006376Y006437D01*
X006357Y006482D01*
X006334Y006525D01*
X006308Y006566D01*
X006279Y006605D01*
X006247Y006642D01*
X006213Y006676D01*
X006176Y006708D01*
X006137Y006737D01*
X006096Y006763D01*
X006053Y006786D01*
X006008Y006805D01*
X005963Y006821D01*
X005916Y006834D01*
X005868Y006843D01*
X005820Y006848D01*
X005771Y006850D01*
X004070Y006850D01*
X006921Y005700D02*
X007126Y005700D01*
X007126Y005100D01*
X007716Y005700D02*
X008321Y005700D01*
X009017Y005696D02*
X009021Y005700D01*
X009621Y005700D01*
X009612Y005696D01*
X009671Y005755D02*
X009671Y005295D01*
X010271Y005295D02*
X010271Y005755D01*
X010271Y005295D02*
X010871Y005295D01*
X010871Y006150D01*
X010873Y006200D01*
X010878Y006250D01*
X010887Y006299D01*
X010899Y006347D01*
X010915Y006395D01*
X010934Y006441D01*
X010957Y006485D01*
X010982Y006528D01*
X011011Y006569D01*
X011042Y006608D01*
X011076Y006645D01*
X011113Y006679D01*
X011152Y006710D01*
X011193Y006739D01*
X011236Y006764D01*
X011280Y006787D01*
X011326Y006806D01*
X011374Y006822D01*
X011422Y006834D01*
X011471Y006843D01*
X011521Y006848D01*
X011571Y006850D01*
X013172Y006850D01*
M02*
