%
M48
M72
T01C0.0100
%
T01
X3621Y1650
X4121Y1650
X4621Y1650
X5121Y1650
X5621Y1650
X6121Y1650
X6621Y1650
X7121Y1650
X7621Y1650
X8121Y1650
X8621Y1650
X9121Y1650
X9621Y1650
X10121Y1650
X10621Y1650
X11121Y1650
X11621Y1650
X12121Y1650
X12621Y1650
X13121Y1650
X13621Y1650
X13621Y2150
X13621Y2650
X13621Y3150
X13621Y3650
X13621Y4150
X13621Y4650
X13621Y5150
X13121Y5150
X12621Y5150
X12621Y4650
X12621Y4150
X12621Y3650
X12621Y3150
X12621Y2650
X11371Y2900
X10871Y2900
X10371Y2900
X9871Y2900
X9371Y2900
X8871Y2900
X8371Y2900
X7871Y2900
X7371Y2900
X6871Y2900
X6371Y2900
X5871Y2900
X5871Y3400
X5871Y3900
X5871Y4400
X5871Y4900
X5871Y5400
X6221Y5850
X6421Y5600
X6771Y5450
X6771Y6050
X6671Y6400
X6521Y6750
X6221Y7000
X5821Y7100
X5871Y7400
X5421Y7100
X5021Y7100
X5021Y6600
X5421Y6600
X5871Y6400
X6121Y6150
X5871Y5900
X4621Y5150
X4121Y5150
X3621Y5150
X3621Y4650
X3621Y4150
X3621Y3650
X3621Y3150
X3621Y2650
X3621Y2150
X4621Y2650
X4621Y3150
X4621Y3650
X4621Y4150
X4621Y4650
X7921Y6050
X9421Y6050
X10621Y6200
X10721Y6650
X11021Y6950
X11371Y7100
X11371Y7400
X11821Y7100
X12171Y7100
X12171Y6600
X11821Y6600
X11371Y6400
X11121Y6150
X11371Y5900
X11121Y5600
X11371Y5400
X11371Y4900
X11371Y4400
X11371Y3900
X11371Y3400
X10621Y5600
X11371Y7900
X11371Y8400
X10871Y8400
X10371Y8400
X9871Y8400
X9371Y8400
X8871Y8400
X8371Y8400
X7871Y8400
X7371Y8400
X6871Y8400
X6371Y8400
X5871Y8400
X5871Y7900
X6671Y7850
X6671Y7600
X4621Y8650
X4121Y8650
X3621Y8650
X3621Y9150
X3621Y9650
X3621Y10150
X3621Y10650
X3621Y11150
X4121Y11150
X4621Y11150
X5121Y11150
X5621Y11150
X6121Y11150
X6121Y10650
X6121Y10150
X6121Y9650
X5621Y9650
X5121Y9650
X4621Y9650
X4621Y9150
X8971Y9350
X9321Y9350
X11121Y9650
X11621Y9650
X12121Y9650
X12621Y9650
X12621Y9150
X12621Y8650
X13121Y8650
X13621Y8650
X13621Y9150
X13621Y9650
X13621Y10150
X13621Y10650
X13621Y11150
X13121Y11150
X12621Y11150
X12121Y11150
X11621Y11150
X11121Y11150
X11121Y10650
X11121Y10150
M30
