G75*
G70*
%OFA0B0*%
%FSLAX24Y24*%
%IPPOS*%
%LPD*%
%AMOC8*
5,1,8,0,0,1.08239X$1,22.5*
%
%ADD10C,0.0180*%
%ADD11C,0.0100*%
D10*
X003621Y001650D03*
X004121Y001650D03*
X004621Y001650D03*
X005121Y001650D03*
X005621Y001650D03*
X006121Y001650D03*
X006621Y001650D03*
X007121Y001650D03*
X007621Y001650D03*
X008121Y001650D03*
X008621Y001650D03*
X009121Y001650D03*
X009621Y001650D03*
X010121Y001650D03*
X010621Y001650D03*
X011121Y001650D03*
X011621Y001650D03*
X012121Y001650D03*
X012621Y001650D03*
X013121Y001650D03*
X013621Y001650D03*
X013621Y002150D03*
X013621Y002650D03*
X013621Y003150D03*
X013621Y003650D03*
X013621Y004150D03*
X013621Y004650D03*
X013621Y005150D03*
X013121Y005150D03*
X012621Y005150D03*
X012621Y004650D03*
X012621Y004150D03*
X012621Y003650D03*
X012621Y003150D03*
X012621Y002650D03*
X011371Y002900D03*
X010871Y002900D03*
X010371Y002900D03*
X009871Y002900D03*
X009371Y002900D03*
X008871Y002900D03*
X008371Y002900D03*
X007871Y002900D03*
X007371Y002900D03*
X006871Y002900D03*
X006371Y002900D03*
X005871Y002900D03*
X005871Y003400D03*
X005871Y003900D03*
X005871Y004400D03*
X005871Y004900D03*
X005871Y005400D03*
X006221Y005850D03*
X006421Y005600D03*
X006771Y005450D03*
X006771Y006050D03*
X006671Y006400D03*
X006521Y006750D03*
X006221Y007000D03*
X005821Y007100D03*
X005871Y007400D03*
X005421Y007100D03*
X005021Y007100D03*
X005021Y006600D03*
X005421Y006600D03*
X005871Y006400D03*
X006121Y006150D03*
X005871Y005900D03*
X004621Y005150D03*
X004121Y005150D03*
X003621Y005150D03*
X003621Y004650D03*
X003621Y004150D03*
X003621Y003650D03*
X003621Y003150D03*
X003621Y002650D03*
X003621Y002150D03*
X004621Y002650D03*
X004621Y003150D03*
X004621Y003650D03*
X004621Y004150D03*
X004621Y004650D03*
X007921Y006050D03*
X009421Y006050D03*
X010621Y006200D03*
X010721Y006650D03*
X011021Y006950D03*
X011371Y007100D03*
X011371Y007400D03*
X011821Y007100D03*
X012171Y007100D03*
X012171Y006600D03*
X011821Y006600D03*
X011371Y006400D03*
X011121Y006150D03*
X011371Y005900D03*
X011121Y005600D03*
X011371Y005400D03*
X011371Y004900D03*
X011371Y004400D03*
X011371Y003900D03*
X011371Y003400D03*
X010621Y005600D03*
X011371Y007900D03*
X011371Y008400D03*
X010871Y008400D03*
X010371Y008400D03*
X009871Y008400D03*
X009371Y008400D03*
X008871Y008400D03*
X008371Y008400D03*
X007871Y008400D03*
X007371Y008400D03*
X006871Y008400D03*
X006371Y008400D03*
X005871Y008400D03*
X005871Y007900D03*
X006671Y007850D03*
X006671Y007600D03*
X004621Y008650D03*
X004121Y008650D03*
X003621Y008650D03*
X003621Y009150D03*
X003621Y009650D03*
X003621Y010150D03*
X003621Y010650D03*
X003621Y011150D03*
X004121Y011150D03*
X004621Y011150D03*
X005121Y011150D03*
X005621Y011150D03*
X006121Y011150D03*
X006121Y010650D03*
X006121Y010150D03*
X006121Y009650D03*
X005621Y009650D03*
X005121Y009650D03*
X004621Y009650D03*
X004621Y009150D03*
X008971Y009350D03*
X009321Y009350D03*
X011121Y009650D03*
X011621Y009650D03*
X012121Y009650D03*
X012621Y009650D03*
X012621Y009150D03*
X012621Y008650D03*
X013121Y008650D03*
X013621Y008650D03*
X013621Y009150D03*
X013621Y009650D03*
X013621Y010150D03*
X013621Y010650D03*
X013621Y011150D03*
X013121Y011150D03*
X012621Y011150D03*
X012121Y011150D03*
X011621Y011150D03*
X011121Y011150D03*
X011121Y010650D03*
X011121Y010150D03*
D11*
X013921Y001350D02*
X003321Y001350D01*
X003321Y011450D01*
X013921Y011450D01*
X013921Y001350D01*
X013921Y001446D02*
X003321Y001446D01*
X003321Y001544D02*
X003458Y001544D01*
X003431Y001571D02*
X003431Y001729D01*
X003542Y001840D01*
X003700Y001840D01*
X003811Y001729D01*
X003811Y001571D01*
X003700Y001460D01*
X003542Y001460D01*
X003431Y001571D01*
X003431Y001643D02*
X003321Y001643D01*
X003321Y001741D02*
X003443Y001741D01*
X003542Y001840D02*
X003321Y001840D01*
X003321Y001938D02*
X013921Y001938D01*
X013921Y001840D02*
X013700Y001840D01*
X013542Y001840D01*
X013431Y001729D01*
X013431Y001571D01*
X013542Y001460D01*
X013700Y001460D01*
X013811Y001571D01*
X013811Y001729D01*
X013700Y001840D01*
X013700Y001960D02*
X013542Y001960D01*
X013431Y002071D01*
X013431Y002229D01*
X013542Y002340D01*
X013700Y002340D01*
X013811Y002229D01*
X013811Y002071D01*
X013700Y001960D01*
X013776Y002037D02*
X013921Y002037D01*
X013921Y002135D02*
X013811Y002135D01*
X013806Y002234D02*
X013921Y002234D01*
X013921Y002332D02*
X013708Y002332D01*
X013700Y002460D02*
X013542Y002460D01*
X013431Y002571D01*
X013431Y002729D01*
X013542Y002840D01*
X013700Y002840D01*
X013811Y002729D01*
X013811Y002571D01*
X013700Y002460D01*
X013769Y002529D02*
X013921Y002529D01*
X013921Y002431D02*
X003321Y002431D01*
X003321Y002529D02*
X003473Y002529D01*
X003431Y002571D02*
X003542Y002460D01*
X003700Y002460D01*
X003811Y002571D01*
X003811Y002729D01*
X003700Y002840D01*
X003542Y002840D01*
X003431Y002729D01*
X003431Y002571D01*
X003431Y002628D02*
X003321Y002628D01*
X003321Y002726D02*
X003431Y002726D01*
X003527Y002825D02*
X003321Y002825D01*
X003321Y002923D02*
X005681Y002923D01*
X005681Y002979D02*
X005681Y002821D01*
X005792Y002710D01*
X005950Y002710D01*
X006061Y002821D01*
X006061Y002979D01*
X005950Y003090D01*
X005792Y003090D01*
X005681Y002979D01*
X005724Y003022D02*
X004761Y003022D01*
X004811Y003071D02*
X004700Y002960D01*
X004542Y002960D01*
X004431Y003071D01*
X004431Y003229D01*
X004542Y003340D01*
X004700Y003340D01*
X004811Y003229D01*
X004811Y003071D01*
X004811Y003120D02*
X012431Y003120D01*
X012431Y003071D02*
X012542Y002960D01*
X012700Y002960D01*
X012811Y003071D01*
X012811Y003229D01*
X012700Y003340D01*
X012542Y003340D01*
X012431Y003229D01*
X012431Y003071D01*
X012481Y003022D02*
X011518Y003022D01*
X011561Y002979D02*
X011450Y003090D01*
X011292Y003090D01*
X011181Y002979D01*
X011181Y002821D01*
X011292Y002710D01*
X011450Y002710D01*
X011561Y002821D01*
X011561Y002979D01*
X011561Y002923D02*
X013921Y002923D01*
X013921Y002825D02*
X013715Y002825D01*
X013700Y002960D02*
X013542Y002960D01*
X013431Y003071D01*
X013431Y003229D01*
X013542Y003340D01*
X013700Y003340D01*
X013811Y003229D01*
X013811Y003071D01*
X013700Y002960D01*
X013761Y003022D02*
X013921Y003022D01*
X013921Y003120D02*
X013811Y003120D01*
X013811Y003219D02*
X013921Y003219D01*
X013921Y003317D02*
X013723Y003317D01*
X013519Y003317D02*
X012723Y003317D01*
X012811Y003219D02*
X013431Y003219D01*
X013431Y003120D02*
X012811Y003120D01*
X012761Y003022D02*
X013481Y003022D01*
X013527Y002825D02*
X012715Y002825D01*
X012700Y002840D02*
X012542Y002840D01*
X012431Y002729D01*
X012431Y002571D01*
X012542Y002460D01*
X012700Y002460D01*
X012811Y002571D01*
X012811Y002729D01*
X012700Y002840D01*
X012811Y002726D02*
X013431Y002726D01*
X013431Y002628D02*
X012811Y002628D01*
X012769Y002529D02*
X013473Y002529D01*
X013534Y002332D02*
X003708Y002332D01*
X003700Y002340D02*
X003542Y002340D01*
X003431Y002229D01*
X003431Y002071D01*
X003542Y001960D01*
X003700Y001960D01*
X003811Y002071D01*
X003811Y002229D01*
X003700Y002340D01*
X003806Y002234D02*
X013436Y002234D01*
X013431Y002135D02*
X003811Y002135D01*
X003776Y002037D02*
X013466Y002037D01*
X013542Y001840D02*
X013200Y001840D01*
X013042Y001840D01*
X012931Y001729D01*
X012931Y001571D01*
X013042Y001460D01*
X013200Y001460D01*
X013311Y001571D01*
X013311Y001729D01*
X013200Y001840D01*
X013299Y001741D02*
X013443Y001741D01*
X013431Y001643D02*
X013311Y001643D01*
X013284Y001544D02*
X013458Y001544D01*
X013784Y001544D02*
X013921Y001544D01*
X013921Y001643D02*
X013811Y001643D01*
X013799Y001741D02*
X013921Y001741D01*
X013042Y001840D02*
X012700Y001840D01*
X012542Y001840D01*
X012431Y001729D01*
X012431Y001571D01*
X012542Y001460D01*
X012700Y001460D01*
X012811Y001571D01*
X012811Y001729D01*
X012700Y001840D01*
X012799Y001741D02*
X012943Y001741D01*
X012931Y001643D02*
X012811Y001643D01*
X012784Y001544D02*
X012958Y001544D01*
X012458Y001544D02*
X012284Y001544D01*
X012311Y001571D02*
X012200Y001460D01*
X012042Y001460D01*
X011931Y001571D01*
X011931Y001729D01*
X012042Y001840D01*
X012200Y001840D01*
X012311Y001729D01*
X012311Y001571D01*
X012311Y001643D02*
X012431Y001643D01*
X012443Y001741D02*
X012299Y001741D01*
X012200Y001840D02*
X012542Y001840D01*
X012042Y001840D02*
X011700Y001840D01*
X011542Y001840D01*
X011431Y001729D01*
X011431Y001571D01*
X011542Y001460D01*
X011700Y001460D01*
X011811Y001571D01*
X011811Y001729D01*
X011700Y001840D01*
X011799Y001741D02*
X011943Y001741D01*
X011931Y001643D02*
X011811Y001643D01*
X011784Y001544D02*
X011958Y001544D01*
X011458Y001544D02*
X011284Y001544D01*
X011311Y001571D02*
X011200Y001460D01*
X011042Y001460D01*
X010931Y001571D01*
X010931Y001729D01*
X011042Y001840D01*
X011200Y001840D01*
X011311Y001729D01*
X011311Y001571D01*
X011311Y001643D02*
X011431Y001643D01*
X011443Y001741D02*
X011299Y001741D01*
X011200Y001840D02*
X011542Y001840D01*
X011042Y001840D02*
X010700Y001840D01*
X010542Y001840D01*
X010431Y001729D01*
X010431Y001571D01*
X010542Y001460D01*
X010700Y001460D01*
X010811Y001571D01*
X010811Y001729D01*
X010700Y001840D01*
X010799Y001741D02*
X010943Y001741D01*
X010931Y001643D02*
X010811Y001643D01*
X010784Y001544D02*
X010958Y001544D01*
X010542Y001840D02*
X010200Y001840D01*
X010042Y001840D01*
X009931Y001729D01*
X009931Y001571D01*
X010042Y001460D01*
X010200Y001460D01*
X010311Y001571D01*
X010311Y001729D01*
X010200Y001840D01*
X010299Y001741D02*
X010443Y001741D01*
X010431Y001643D02*
X010311Y001643D01*
X010284Y001544D02*
X010458Y001544D01*
X010042Y001840D02*
X009700Y001840D01*
X009542Y001840D01*
X009431Y001729D01*
X009431Y001571D01*
X009542Y001460D01*
X009700Y001460D01*
X009811Y001571D01*
X009811Y001729D01*
X009700Y001840D01*
X009799Y001741D02*
X009943Y001741D01*
X009931Y001643D02*
X009811Y001643D01*
X009784Y001544D02*
X009958Y001544D01*
X009542Y001840D02*
X009200Y001840D01*
X009042Y001840D01*
X008931Y001729D01*
X008931Y001571D01*
X009042Y001460D01*
X009200Y001460D01*
X009311Y001571D01*
X009311Y001729D01*
X009200Y001840D01*
X009299Y001741D02*
X009443Y001741D01*
X009431Y001643D02*
X009311Y001643D01*
X009284Y001544D02*
X009458Y001544D01*
X009042Y001840D02*
X008700Y001840D01*
X008542Y001840D01*
X008431Y001729D01*
X008431Y001571D01*
X008542Y001460D01*
X008700Y001460D01*
X008811Y001571D01*
X008811Y001729D01*
X008700Y001840D01*
X008799Y001741D02*
X008943Y001741D01*
X008931Y001643D02*
X008811Y001643D01*
X008784Y001544D02*
X008958Y001544D01*
X008458Y001544D02*
X008284Y001544D01*
X008311Y001571D02*
X008200Y001460D01*
X008042Y001460D01*
X007931Y001571D01*
X007931Y001729D01*
X008042Y001840D01*
X008200Y001840D01*
X008311Y001729D01*
X008311Y001571D01*
X008311Y001643D02*
X008431Y001643D01*
X008443Y001741D02*
X008299Y001741D01*
X008200Y001840D02*
X008542Y001840D01*
X008042Y001840D02*
X007700Y001840D01*
X007542Y001840D01*
X007431Y001729D01*
X007431Y001571D01*
X007542Y001460D01*
X007700Y001460D01*
X007811Y001571D01*
X007811Y001729D01*
X007700Y001840D01*
X007799Y001741D02*
X007943Y001741D01*
X007931Y001643D02*
X007811Y001643D01*
X007784Y001544D02*
X007958Y001544D01*
X007458Y001544D02*
X007284Y001544D01*
X007311Y001571D02*
X007200Y001460D01*
X007042Y001460D01*
X006931Y001571D01*
X006931Y001729D01*
X007042Y001840D01*
X007200Y001840D01*
X007311Y001729D01*
X007311Y001571D01*
X007311Y001643D02*
X007431Y001643D01*
X007443Y001741D02*
X007299Y001741D01*
X007200Y001840D02*
X007542Y001840D01*
X007042Y001840D02*
X006700Y001840D01*
X006542Y001840D01*
X006431Y001729D01*
X006431Y001571D01*
X006542Y001460D01*
X006700Y001460D01*
X006811Y001571D01*
X006811Y001729D01*
X006700Y001840D01*
X006799Y001741D02*
X006943Y001741D01*
X006931Y001643D02*
X006811Y001643D01*
X006784Y001544D02*
X006958Y001544D01*
X006458Y001544D02*
X006284Y001544D01*
X006311Y001571D02*
X006200Y001460D01*
X006042Y001460D01*
X005931Y001571D01*
X005931Y001729D01*
X006042Y001840D01*
X006200Y001840D01*
X006311Y001729D01*
X006311Y001571D01*
X006311Y001643D02*
X006431Y001643D01*
X006443Y001741D02*
X006299Y001741D01*
X006200Y001840D02*
X006542Y001840D01*
X006042Y001840D02*
X005700Y001840D01*
X005542Y001840D01*
X005431Y001729D01*
X005431Y001571D01*
X005542Y001460D01*
X005700Y001460D01*
X005811Y001571D01*
X005811Y001729D01*
X005700Y001840D01*
X005799Y001741D02*
X005943Y001741D01*
X005931Y001643D02*
X005811Y001643D01*
X005784Y001544D02*
X005958Y001544D01*
X005542Y001840D02*
X005200Y001840D01*
X005042Y001840D01*
X004931Y001729D01*
X004931Y001571D01*
X005042Y001460D01*
X005200Y001460D01*
X005311Y001571D01*
X005311Y001729D01*
X005200Y001840D01*
X005299Y001741D02*
X005443Y001741D01*
X005431Y001643D02*
X005311Y001643D01*
X005284Y001544D02*
X005458Y001544D01*
X005042Y001840D02*
X004700Y001840D01*
X004542Y001840D01*
X004431Y001729D01*
X004431Y001571D01*
X004542Y001460D01*
X004700Y001460D01*
X004811Y001571D01*
X004811Y001729D01*
X004700Y001840D01*
X004799Y001741D02*
X004943Y001741D01*
X004931Y001643D02*
X004811Y001643D01*
X004784Y001544D02*
X004958Y001544D01*
X004542Y001840D02*
X004200Y001840D01*
X004042Y001840D01*
X003931Y001729D01*
X003931Y001571D01*
X004042Y001460D01*
X004200Y001460D01*
X004311Y001571D01*
X004311Y001729D01*
X004200Y001840D01*
X004299Y001741D02*
X004443Y001741D01*
X004431Y001643D02*
X004311Y001643D01*
X004284Y001544D02*
X004458Y001544D01*
X004042Y001840D02*
X003700Y001840D01*
X003799Y001741D02*
X003943Y001741D01*
X003931Y001643D02*
X003811Y001643D01*
X003784Y001544D02*
X003958Y001544D01*
X003466Y002037D02*
X003321Y002037D01*
X003321Y002135D02*
X003431Y002135D01*
X003436Y002234D02*
X003321Y002234D01*
X003321Y002332D02*
X003534Y002332D01*
X003769Y002529D02*
X004473Y002529D01*
X004431Y002571D02*
X004542Y002460D01*
X004700Y002460D01*
X004811Y002571D01*
X004811Y002729D01*
X004700Y002840D01*
X004542Y002840D01*
X004431Y002729D01*
X004431Y002571D01*
X004431Y002628D02*
X003811Y002628D01*
X003811Y002726D02*
X004431Y002726D01*
X004527Y002825D02*
X003715Y002825D01*
X003700Y002960D02*
X003542Y002960D01*
X003431Y003071D01*
X003431Y003229D01*
X003542Y003340D01*
X003700Y003340D01*
X003811Y003229D01*
X003811Y003071D01*
X003700Y002960D01*
X003761Y003022D02*
X004481Y003022D01*
X004431Y003120D02*
X003811Y003120D01*
X003811Y003219D02*
X004431Y003219D01*
X004519Y003317D02*
X003723Y003317D01*
X003519Y003317D02*
X003321Y003317D01*
X003321Y003219D02*
X003431Y003219D01*
X003431Y003120D02*
X003321Y003120D01*
X003321Y003022D02*
X003481Y003022D01*
X003321Y003416D02*
X005681Y003416D01*
X005681Y003479D02*
X005681Y003321D01*
X005792Y003210D01*
X005950Y003210D01*
X006061Y003321D01*
X006061Y003479D01*
X005950Y003590D01*
X005792Y003590D01*
X005681Y003479D01*
X005716Y003514D02*
X004754Y003514D01*
X004700Y003460D02*
X004811Y003571D01*
X004811Y003729D01*
X004700Y003840D01*
X004542Y003840D01*
X004431Y003729D01*
X004431Y003571D01*
X004542Y003460D01*
X004700Y003460D01*
X004811Y003613D02*
X012431Y003613D01*
X012431Y003571D02*
X012542Y003460D01*
X012700Y003460D01*
X012811Y003571D01*
X012811Y003729D01*
X012700Y003840D01*
X012542Y003840D01*
X012431Y003729D01*
X012431Y003571D01*
X012488Y003514D02*
X011526Y003514D01*
X011561Y003479D02*
X011450Y003590D01*
X011292Y003590D01*
X011181Y003479D01*
X011181Y003321D01*
X011292Y003210D01*
X011450Y003210D01*
X011561Y003321D01*
X011561Y003479D01*
X011561Y003416D02*
X013921Y003416D01*
X013921Y003514D02*
X013754Y003514D01*
X013700Y003460D02*
X013811Y003571D01*
X013811Y003729D01*
X013700Y003840D01*
X013542Y003840D01*
X013431Y003729D01*
X013431Y003571D01*
X013542Y003460D01*
X013700Y003460D01*
X013811Y003613D02*
X013921Y003613D01*
X013921Y003711D02*
X013811Y003711D01*
X013730Y003810D02*
X013921Y003810D01*
X013921Y003908D02*
X011561Y003908D01*
X011561Y003979D02*
X011450Y004090D01*
X011292Y004090D01*
X011181Y003979D01*
X011181Y003821D01*
X011292Y003710D01*
X011450Y003710D01*
X011561Y003821D01*
X011561Y003979D01*
X011533Y004007D02*
X012496Y004007D01*
X012542Y003960D02*
X012431Y004071D01*
X012431Y004229D01*
X012542Y004340D01*
X012700Y004340D01*
X012811Y004229D01*
X012811Y004071D01*
X012700Y003960D01*
X012542Y003960D01*
X012512Y003810D02*
X011549Y003810D01*
X011451Y003711D02*
X012431Y003711D01*
X012730Y003810D02*
X013512Y003810D01*
X013431Y003711D02*
X012811Y003711D01*
X012811Y003613D02*
X013431Y003613D01*
X013488Y003514D02*
X012754Y003514D01*
X012519Y003317D02*
X011557Y003317D01*
X011458Y003219D02*
X012431Y003219D01*
X012527Y002825D02*
X011561Y002825D01*
X011466Y002726D02*
X012431Y002726D01*
X012431Y002628D02*
X004811Y002628D01*
X004811Y002726D02*
X005776Y002726D01*
X005681Y002825D02*
X004715Y002825D01*
X004769Y002529D02*
X012473Y002529D01*
X011276Y002726D02*
X010966Y002726D01*
X010950Y002710D02*
X011061Y002821D01*
X011061Y002979D01*
X010950Y003090D01*
X010792Y003090D01*
X010681Y002979D01*
X010681Y002821D01*
X010792Y002710D01*
X010950Y002710D01*
X011061Y002825D02*
X011181Y002825D01*
X011181Y002923D02*
X011061Y002923D01*
X011018Y003022D02*
X011224Y003022D01*
X011284Y003219D02*
X005958Y003219D01*
X006057Y003317D02*
X011185Y003317D01*
X011181Y003416D02*
X006061Y003416D01*
X006026Y003514D02*
X011216Y003514D01*
X011291Y003711D02*
X005951Y003711D01*
X005950Y003710D02*
X006061Y003821D01*
X006061Y003979D01*
X005950Y004090D01*
X005792Y004090D01*
X005681Y003979D01*
X005681Y003821D01*
X005792Y003710D01*
X005950Y003710D01*
X006049Y003810D02*
X011193Y003810D01*
X011181Y003908D02*
X006061Y003908D01*
X006033Y004007D02*
X011209Y004007D01*
X011292Y004210D02*
X011450Y004210D01*
X011561Y004321D01*
X011561Y004479D01*
X011450Y004590D01*
X011292Y004590D01*
X011181Y004479D01*
X011181Y004321D01*
X011292Y004210D01*
X011200Y004302D02*
X006042Y004302D01*
X006061Y004321D02*
X005950Y004210D01*
X005792Y004210D01*
X005681Y004321D01*
X005681Y004479D01*
X005792Y004590D01*
X005950Y004590D01*
X006061Y004479D01*
X006061Y004321D01*
X006061Y004401D02*
X011181Y004401D01*
X011201Y004499D02*
X006041Y004499D01*
X005950Y004710D02*
X006061Y004821D01*
X006061Y004979D01*
X005950Y005090D01*
X005792Y005090D01*
X005681Y004979D01*
X005681Y004821D01*
X005792Y004710D01*
X005950Y004710D01*
X006034Y004795D02*
X011208Y004795D01*
X011181Y004821D02*
X011181Y004979D01*
X011292Y005090D01*
X011450Y005090D01*
X011561Y004979D01*
X011561Y004821D01*
X011450Y004710D01*
X011292Y004710D01*
X011181Y004821D01*
X011181Y004893D02*
X006061Y004893D01*
X006048Y004992D02*
X011194Y004992D01*
X011292Y005210D02*
X011450Y005210D01*
X011561Y005321D01*
X011561Y005479D01*
X011450Y005590D01*
X011311Y005590D01*
X011311Y005679D01*
X011200Y005790D01*
X011042Y005790D01*
X010931Y005679D01*
X010931Y005521D01*
X011042Y005410D01*
X011181Y005410D01*
X011181Y005321D01*
X011292Y005210D01*
X011215Y005287D02*
X006877Y005287D01*
X006850Y005260D02*
X006961Y005371D01*
X006961Y005529D01*
X006850Y005640D01*
X006692Y005640D01*
X006611Y005559D01*
X006611Y005679D01*
X006500Y005790D01*
X006411Y005790D01*
X006411Y005929D01*
X006300Y006040D01*
X006280Y006040D01*
X006311Y006071D01*
X006311Y006229D01*
X006200Y006340D01*
X006061Y006340D01*
X006061Y006479D01*
X005950Y006590D01*
X005792Y006590D01*
X005681Y006479D01*
X005681Y006321D01*
X005792Y006210D01*
X005931Y006210D01*
X005931Y006090D01*
X005792Y006090D01*
X005681Y005979D01*
X005681Y005821D01*
X005792Y005710D01*
X005950Y005710D01*
X006031Y005791D01*
X006031Y005771D01*
X006142Y005660D01*
X006231Y005660D01*
X006231Y005521D01*
X006342Y005410D01*
X006500Y005410D01*
X006581Y005491D01*
X006581Y005371D01*
X006692Y005260D01*
X006850Y005260D01*
X006961Y005386D02*
X011181Y005386D01*
X010968Y005484D02*
X010774Y005484D01*
X010811Y005521D02*
X010700Y005410D01*
X010542Y005410D01*
X010431Y005521D01*
X010431Y005679D01*
X010542Y005790D01*
X010700Y005790D01*
X010811Y005679D01*
X010811Y005521D01*
X010811Y005583D02*
X010931Y005583D01*
X010933Y005681D02*
X010809Y005681D01*
X010710Y005780D02*
X011032Y005780D01*
X011181Y005821D02*
X011181Y005960D01*
X011042Y005960D01*
X010931Y006071D01*
X010931Y006229D01*
X011042Y006340D01*
X011181Y006340D01*
X011181Y006479D01*
X011292Y006590D01*
X011450Y006590D01*
X011561Y006479D01*
X011561Y006321D01*
X011450Y006210D01*
X011311Y006210D01*
X011311Y006090D01*
X011450Y006090D01*
X011561Y005979D01*
X011561Y005821D01*
X011450Y005710D01*
X011292Y005710D01*
X011181Y005821D01*
X011210Y005780D02*
X011223Y005780D01*
X011181Y005878D02*
X009518Y005878D01*
X009500Y005860D02*
X009611Y005971D01*
X009611Y006129D01*
X009500Y006240D01*
X009342Y006240D01*
X009231Y006129D01*
X009231Y005971D01*
X009342Y005860D01*
X009500Y005860D01*
X009611Y005977D02*
X011026Y005977D01*
X010931Y006075D02*
X010765Y006075D01*
X010811Y006121D02*
X010700Y006010D01*
X010542Y006010D01*
X010431Y006121D01*
X010431Y006279D01*
X010542Y006390D01*
X010700Y006390D01*
X010811Y006279D01*
X010811Y006121D01*
X010811Y006174D02*
X010931Y006174D01*
X010974Y006272D02*
X010811Y006272D01*
X010719Y006371D02*
X011181Y006371D01*
X011181Y006469D02*
X010809Y006469D01*
X010800Y006460D02*
X010911Y006571D01*
X010911Y006729D01*
X010800Y006840D01*
X010642Y006840D01*
X010531Y006729D01*
X010531Y006571D01*
X010642Y006460D01*
X010800Y006460D01*
X010907Y006568D02*
X011270Y006568D01*
X011472Y006568D02*
X011631Y006568D01*
X011631Y006521D02*
X011742Y006410D01*
X011900Y006410D01*
X011996Y006506D01*
X012092Y006410D01*
X012250Y006410D01*
X012361Y006521D01*
X012361Y006679D01*
X012250Y006790D01*
X012092Y006790D01*
X011996Y006694D01*
X011900Y006790D01*
X011742Y006790D01*
X011631Y006679D01*
X011631Y006521D01*
X011683Y006469D02*
X011561Y006469D01*
X011561Y006371D02*
X013921Y006371D01*
X013921Y006469D02*
X012309Y006469D01*
X012361Y006568D02*
X013921Y006568D01*
X013921Y006666D02*
X012361Y006666D01*
X012275Y006765D02*
X013921Y006765D01*
X013921Y006863D02*
X011203Y006863D01*
X011211Y006871D02*
X011100Y006760D01*
X010942Y006760D01*
X010831Y006871D01*
X010831Y007029D01*
X010942Y007140D01*
X011100Y007140D01*
X011181Y007059D01*
X011181Y007179D01*
X011252Y007250D01*
X011181Y007321D01*
X011181Y007479D01*
X011292Y007590D01*
X011450Y007590D01*
X011561Y007479D01*
X011561Y007321D01*
X011490Y007250D01*
X011561Y007179D01*
X011561Y007021D01*
X011450Y006910D01*
X011292Y006910D01*
X011211Y006991D01*
X011211Y006871D01*
X011211Y006962D02*
X011241Y006962D01*
X011181Y007060D02*
X011180Y007060D01*
X011181Y007159D02*
X006331Y007159D01*
X006300Y007190D02*
X006142Y007190D01*
X006031Y007079D01*
X006031Y006921D01*
X006142Y006810D01*
X006300Y006810D01*
X006411Y006921D01*
X006411Y007079D01*
X006300Y007190D01*
X006411Y007060D02*
X010862Y007060D01*
X010831Y006962D02*
X006411Y006962D01*
X006442Y006940D02*
X006331Y006829D01*
X006331Y006671D01*
X006442Y006560D01*
X006562Y006560D01*
X006481Y006479D01*
X006481Y006321D01*
X006592Y006210D01*
X006662Y006210D01*
X006581Y006129D01*
X006581Y005971D01*
X006692Y005860D01*
X006850Y005860D01*
X006961Y005971D01*
X006961Y006129D01*
X006850Y006240D01*
X006780Y006240D01*
X006861Y006321D01*
X006861Y006479D01*
X006750Y006590D01*
X006630Y006590D01*
X006711Y006671D01*
X006711Y006829D01*
X006600Y006940D01*
X006442Y006940D01*
X006365Y006863D02*
X006353Y006863D01*
X006331Y006765D02*
X005525Y006765D01*
X005500Y006790D02*
X005611Y006679D01*
X005611Y006521D01*
X005500Y006410D01*
X005342Y006410D01*
X005231Y006521D01*
X005231Y006679D01*
X005342Y006790D01*
X005500Y006790D01*
X005500Y006910D02*
X005611Y007021D01*
X005611Y007179D01*
X005500Y007290D01*
X005342Y007290D01*
X005231Y007179D01*
X005231Y007021D01*
X005342Y006910D01*
X005500Y006910D01*
X005551Y006962D02*
X005691Y006962D01*
X005742Y006910D02*
X005900Y006910D01*
X006011Y007021D01*
X006011Y007179D01*
X005965Y007225D01*
X006061Y007321D01*
X006061Y007479D01*
X005950Y007590D01*
X005792Y007590D01*
X005681Y007479D01*
X005681Y007321D01*
X005727Y007275D01*
X005631Y007179D01*
X005631Y007021D01*
X005742Y006910D01*
X005951Y006962D02*
X006031Y006962D01*
X006031Y007060D02*
X006011Y007060D01*
X006011Y007159D02*
X006111Y007159D01*
X005997Y007257D02*
X011245Y007257D01*
X011181Y007356D02*
X006061Y007356D01*
X006061Y007454D02*
X011181Y007454D01*
X011255Y007553D02*
X005987Y007553D01*
X005950Y007710D02*
X005792Y007710D01*
X005681Y007821D01*
X005681Y007979D01*
X005792Y008090D01*
X005950Y008090D01*
X006061Y007979D01*
X006061Y007821D01*
X005950Y007710D01*
X005989Y007750D02*
X011253Y007750D01*
X011292Y007710D02*
X011450Y007710D01*
X011561Y007821D01*
X011561Y007979D01*
X011450Y008090D01*
X011292Y008090D01*
X011181Y007979D01*
X011181Y007821D01*
X011292Y007710D01*
X011181Y007848D02*
X006061Y007848D01*
X006061Y007947D02*
X011181Y007947D01*
X011247Y008045D02*
X005995Y008045D01*
X005747Y008045D02*
X003321Y008045D01*
X003321Y007947D02*
X005681Y007947D01*
X005681Y007848D02*
X003321Y007848D01*
X003321Y007750D02*
X005753Y007750D01*
X005755Y007553D02*
X003321Y007553D01*
X003321Y007651D02*
X013921Y007651D01*
X013921Y007553D02*
X011487Y007553D01*
X011561Y007454D02*
X013921Y007454D01*
X013921Y007356D02*
X011561Y007356D01*
X011497Y007257D02*
X011709Y007257D01*
X011742Y007290D02*
X011631Y007179D01*
X011631Y007021D01*
X011742Y006910D01*
X011900Y006910D01*
X011996Y007006D01*
X012092Y006910D01*
X012250Y006910D01*
X012361Y007021D01*
X012361Y007179D01*
X012250Y007290D01*
X012092Y007290D01*
X011996Y007194D01*
X011900Y007290D01*
X011742Y007290D01*
X011631Y007159D02*
X011561Y007159D01*
X011561Y007060D02*
X011631Y007060D01*
X011691Y006962D02*
X011501Y006962D01*
X011717Y006765D02*
X011104Y006765D01*
X010938Y006765D02*
X010875Y006765D01*
X010839Y006863D02*
X006677Y006863D01*
X006711Y006765D02*
X010567Y006765D01*
X010531Y006666D02*
X006706Y006666D01*
X006772Y006568D02*
X010535Y006568D01*
X010633Y006469D02*
X006861Y006469D01*
X006861Y006371D02*
X010523Y006371D01*
X010431Y006272D02*
X006812Y006272D01*
X006916Y006174D02*
X007776Y006174D01*
X007731Y006129D02*
X007842Y006240D01*
X008000Y006240D01*
X008111Y006129D01*
X008111Y005971D01*
X008000Y005860D01*
X007842Y005860D01*
X007731Y005971D01*
X007731Y006129D01*
X007731Y006075D02*
X006961Y006075D01*
X006961Y005977D02*
X007731Y005977D01*
X007824Y005878D02*
X006868Y005878D01*
X006674Y005878D02*
X006411Y005878D01*
X006363Y005977D02*
X006581Y005977D01*
X006581Y006075D02*
X006311Y006075D01*
X006311Y006174D02*
X006626Y006174D01*
X006530Y006272D02*
X006268Y006272D01*
X006061Y006371D02*
X006481Y006371D01*
X006481Y006469D02*
X006061Y006469D01*
X005972Y006568D02*
X006435Y006568D01*
X006336Y006666D02*
X005611Y006666D01*
X005611Y006568D02*
X005770Y006568D01*
X005681Y006469D02*
X005559Y006469D01*
X005681Y006371D02*
X003321Y006371D01*
X003321Y006469D02*
X004883Y006469D01*
X004831Y006521D02*
X004942Y006410D01*
X005100Y006410D01*
X005211Y006521D01*
X005211Y006679D01*
X005100Y006790D01*
X004942Y006790D01*
X004831Y006679D01*
X004831Y006521D01*
X004831Y006568D02*
X003321Y006568D01*
X003321Y006666D02*
X004831Y006666D01*
X004917Y006765D02*
X003321Y006765D01*
X003321Y006863D02*
X006089Y006863D01*
X005631Y007060D02*
X005611Y007060D01*
X005611Y007159D02*
X005631Y007159D01*
X005709Y007257D02*
X005533Y007257D01*
X005681Y007356D02*
X003321Y007356D01*
X003321Y007454D02*
X005681Y007454D01*
X005309Y007257D02*
X005133Y007257D01*
X005100Y007290D02*
X004942Y007290D01*
X004831Y007179D01*
X004831Y007021D01*
X004942Y006910D01*
X005100Y006910D01*
X005211Y007021D01*
X005211Y007179D01*
X005100Y007290D01*
X005211Y007159D02*
X005231Y007159D01*
X005231Y007060D02*
X005211Y007060D01*
X005151Y006962D02*
X005291Y006962D01*
X005317Y006765D02*
X005125Y006765D01*
X005211Y006666D02*
X005231Y006666D01*
X005231Y006568D02*
X005211Y006568D01*
X005159Y006469D02*
X005283Y006469D01*
X005730Y006272D02*
X003321Y006272D01*
X003321Y006174D02*
X005931Y006174D01*
X005777Y006075D02*
X003321Y006075D01*
X003321Y005977D02*
X005681Y005977D01*
X005681Y005878D02*
X003321Y005878D01*
X003321Y005780D02*
X005723Y005780D01*
X006019Y005780D02*
X006031Y005780D01*
X006121Y005681D02*
X003321Y005681D01*
X003321Y005583D02*
X005785Y005583D01*
X005792Y005590D02*
X005681Y005479D01*
X005681Y005321D01*
X005792Y005210D01*
X005950Y005210D01*
X006061Y005321D01*
X006061Y005479D01*
X005950Y005590D01*
X005792Y005590D01*
X005686Y005484D02*
X003321Y005484D01*
X003321Y005386D02*
X005681Y005386D01*
X005715Y005287D02*
X004753Y005287D01*
X004700Y005340D02*
X004542Y005340D01*
X004431Y005229D01*
X004431Y005071D01*
X004542Y004960D01*
X004700Y004960D01*
X004811Y005071D01*
X004811Y005229D01*
X004700Y005340D01*
X004811Y005189D02*
X012431Y005189D01*
X012431Y005229D02*
X012431Y005071D01*
X012542Y004960D01*
X012700Y004960D01*
X012811Y005071D01*
X012811Y005229D01*
X012700Y005340D01*
X012542Y005340D01*
X012431Y005229D01*
X012489Y005287D02*
X011527Y005287D01*
X011561Y005386D02*
X013921Y005386D01*
X013921Y005484D02*
X011556Y005484D01*
X011457Y005583D02*
X013921Y005583D01*
X013921Y005681D02*
X011309Y005681D01*
X011519Y005780D02*
X013921Y005780D01*
X013921Y005878D02*
X011561Y005878D01*
X011561Y005977D02*
X013921Y005977D01*
X013921Y006075D02*
X011465Y006075D01*
X011311Y006174D02*
X013921Y006174D01*
X013921Y006272D02*
X011512Y006272D01*
X011631Y006666D02*
X010911Y006666D01*
X010431Y006174D02*
X009566Y006174D01*
X009611Y006075D02*
X010477Y006075D01*
X010532Y005780D02*
X006510Y005780D01*
X006609Y005681D02*
X010433Y005681D01*
X010431Y005583D02*
X006907Y005583D01*
X006961Y005484D02*
X010468Y005484D01*
X011548Y004992D02*
X012511Y004992D01*
X012431Y005090D02*
X004811Y005090D01*
X004731Y004992D02*
X005694Y004992D01*
X005681Y004893D02*
X003321Y004893D01*
X003321Y004795D02*
X003497Y004795D01*
X003542Y004840D02*
X003431Y004729D01*
X003431Y004571D01*
X003542Y004460D01*
X003700Y004460D01*
X003811Y004571D01*
X003811Y004729D01*
X003700Y004840D01*
X003542Y004840D01*
X003542Y004960D02*
X003700Y004960D01*
X003811Y005071D01*
X003811Y005229D01*
X003700Y005340D01*
X003542Y005340D01*
X003431Y005229D01*
X003431Y005071D01*
X003542Y004960D01*
X003511Y004992D02*
X003321Y004992D01*
X003321Y005090D02*
X003431Y005090D01*
X003431Y005189D02*
X003321Y005189D01*
X003321Y005287D02*
X003489Y005287D01*
X003753Y005287D02*
X003989Y005287D01*
X004042Y005340D02*
X003931Y005229D01*
X003931Y005071D01*
X004042Y004960D01*
X004200Y004960D01*
X004311Y005071D01*
X004311Y005229D01*
X004200Y005340D01*
X004042Y005340D01*
X003931Y005189D02*
X003811Y005189D01*
X003811Y005090D02*
X003931Y005090D01*
X004011Y004992D02*
X003731Y004992D01*
X003745Y004795D02*
X004497Y004795D01*
X004542Y004840D02*
X004431Y004729D01*
X004431Y004571D01*
X004542Y004460D01*
X004700Y004460D01*
X004811Y004571D01*
X004811Y004729D01*
X004700Y004840D01*
X004542Y004840D01*
X004511Y004992D02*
X004231Y004992D01*
X004311Y005090D02*
X004431Y005090D01*
X004431Y005189D02*
X004311Y005189D01*
X004253Y005287D02*
X004489Y005287D01*
X004745Y004795D02*
X005708Y004795D01*
X005701Y004499D02*
X004739Y004499D01*
X004811Y004598D02*
X012431Y004598D01*
X012431Y004571D02*
X012542Y004460D01*
X012700Y004460D01*
X012811Y004571D01*
X012811Y004729D01*
X012700Y004840D01*
X012542Y004840D01*
X012431Y004729D01*
X012431Y004571D01*
X012503Y004499D02*
X011541Y004499D01*
X011561Y004401D02*
X013921Y004401D01*
X013921Y004499D02*
X013739Y004499D01*
X013700Y004460D02*
X013542Y004460D01*
X013431Y004571D01*
X013431Y004729D01*
X013542Y004840D01*
X013700Y004840D01*
X013811Y004729D01*
X013811Y004571D01*
X013700Y004460D01*
X013700Y004340D02*
X013542Y004340D01*
X013431Y004229D01*
X013431Y004071D01*
X013542Y003960D01*
X013700Y003960D01*
X013811Y004071D01*
X013811Y004229D01*
X013700Y004340D01*
X013738Y004302D02*
X013921Y004302D01*
X013921Y004204D02*
X013811Y004204D01*
X013811Y004105D02*
X013921Y004105D01*
X013921Y004007D02*
X013746Y004007D01*
X013496Y004007D02*
X012746Y004007D01*
X012811Y004105D02*
X013431Y004105D01*
X013431Y004204D02*
X012811Y004204D01*
X012738Y004302D02*
X013504Y004302D01*
X013503Y004499D02*
X012739Y004499D01*
X012811Y004598D02*
X013431Y004598D01*
X013431Y004696D02*
X012811Y004696D01*
X012745Y004795D02*
X013497Y004795D01*
X013542Y004960D02*
X013700Y004960D01*
X013811Y005071D01*
X013811Y005229D01*
X013700Y005340D01*
X013542Y005340D01*
X013431Y005229D01*
X013431Y005071D01*
X013542Y004960D01*
X013511Y004992D02*
X013231Y004992D01*
X013200Y004960D02*
X013042Y004960D01*
X012931Y005071D01*
X012931Y005229D01*
X013042Y005340D01*
X013200Y005340D01*
X013311Y005229D01*
X013311Y005071D01*
X013200Y004960D01*
X013311Y005090D02*
X013431Y005090D01*
X013431Y005189D02*
X013311Y005189D01*
X013253Y005287D02*
X013489Y005287D01*
X013753Y005287D02*
X013921Y005287D01*
X013921Y005189D02*
X013811Y005189D01*
X013811Y005090D02*
X013921Y005090D01*
X013921Y004992D02*
X013731Y004992D01*
X013921Y004893D02*
X011561Y004893D01*
X011534Y004795D02*
X012497Y004795D01*
X012431Y004696D02*
X004811Y004696D01*
X004503Y004499D02*
X003739Y004499D01*
X003811Y004598D02*
X004431Y004598D01*
X004431Y004696D02*
X003811Y004696D01*
X003503Y004499D02*
X003321Y004499D01*
X003321Y004401D02*
X005681Y004401D01*
X005700Y004302D02*
X004738Y004302D01*
X004700Y004340D02*
X004542Y004340D01*
X004431Y004229D01*
X004431Y004071D01*
X004542Y003960D01*
X004700Y003960D01*
X004811Y004071D01*
X004811Y004229D01*
X004700Y004340D01*
X004811Y004204D02*
X012431Y004204D01*
X012431Y004105D02*
X004811Y004105D01*
X004746Y004007D02*
X005709Y004007D01*
X005681Y003908D02*
X003321Y003908D01*
X003321Y003810D02*
X003512Y003810D01*
X003542Y003840D02*
X003431Y003729D01*
X003431Y003571D01*
X003542Y003460D01*
X003700Y003460D01*
X003811Y003571D01*
X003811Y003729D01*
X003700Y003840D01*
X003542Y003840D01*
X003542Y003960D02*
X003700Y003960D01*
X003811Y004071D01*
X003811Y004229D01*
X003700Y004340D01*
X003542Y004340D01*
X003431Y004229D01*
X003431Y004071D01*
X003542Y003960D01*
X003496Y004007D02*
X003321Y004007D01*
X003321Y004105D02*
X003431Y004105D01*
X003431Y004204D02*
X003321Y004204D01*
X003321Y004302D02*
X003504Y004302D01*
X003738Y004302D02*
X004504Y004302D01*
X004431Y004204D02*
X003811Y004204D01*
X003811Y004105D02*
X004431Y004105D01*
X004496Y004007D02*
X003746Y004007D01*
X003730Y003810D02*
X004512Y003810D01*
X004431Y003711D02*
X003811Y003711D01*
X003811Y003613D02*
X004431Y003613D01*
X004488Y003514D02*
X003754Y003514D01*
X003488Y003514D02*
X003321Y003514D01*
X003321Y003613D02*
X003431Y003613D01*
X003431Y003711D02*
X003321Y003711D01*
X003321Y004598D02*
X003431Y004598D01*
X003431Y004696D02*
X003321Y004696D01*
X004730Y003810D02*
X005693Y003810D01*
X005791Y003711D02*
X004811Y003711D01*
X004723Y003317D02*
X005685Y003317D01*
X005784Y003219D02*
X004811Y003219D01*
X006018Y003022D02*
X006224Y003022D01*
X006181Y002979D02*
X006181Y002821D01*
X006292Y002710D01*
X006450Y002710D01*
X006561Y002821D01*
X006561Y002979D01*
X006450Y003090D01*
X006292Y003090D01*
X006181Y002979D01*
X006181Y002923D02*
X006061Y002923D01*
X006061Y002825D02*
X006181Y002825D01*
X006276Y002726D02*
X005966Y002726D01*
X006466Y002726D02*
X006776Y002726D01*
X006792Y002710D02*
X006950Y002710D01*
X007061Y002821D01*
X007061Y002979D01*
X006950Y003090D01*
X006792Y003090D01*
X006681Y002979D01*
X006681Y002821D01*
X006792Y002710D01*
X006681Y002825D02*
X006561Y002825D01*
X006561Y002923D02*
X006681Y002923D01*
X006724Y003022D02*
X006518Y003022D01*
X007018Y003022D02*
X007224Y003022D01*
X007181Y002979D02*
X007181Y002821D01*
X007292Y002710D01*
X007450Y002710D01*
X007561Y002821D01*
X007561Y002979D01*
X007450Y003090D01*
X007292Y003090D01*
X007181Y002979D01*
X007181Y002923D02*
X007061Y002923D01*
X007061Y002825D02*
X007181Y002825D01*
X007276Y002726D02*
X006966Y002726D01*
X007466Y002726D02*
X007776Y002726D01*
X007792Y002710D02*
X007950Y002710D01*
X008061Y002821D01*
X008061Y002979D01*
X007950Y003090D01*
X007792Y003090D01*
X007681Y002979D01*
X007681Y002821D01*
X007792Y002710D01*
X007681Y002825D02*
X007561Y002825D01*
X007561Y002923D02*
X007681Y002923D01*
X007724Y003022D02*
X007518Y003022D01*
X008018Y003022D02*
X008224Y003022D01*
X008181Y002979D02*
X008181Y002821D01*
X008292Y002710D01*
X008450Y002710D01*
X008561Y002821D01*
X008561Y002979D01*
X008450Y003090D01*
X008292Y003090D01*
X008181Y002979D01*
X008181Y002923D02*
X008061Y002923D01*
X008061Y002825D02*
X008181Y002825D01*
X008276Y002726D02*
X007966Y002726D01*
X008466Y002726D02*
X008776Y002726D01*
X008792Y002710D02*
X008950Y002710D01*
X009061Y002821D01*
X009061Y002979D01*
X008950Y003090D01*
X008792Y003090D01*
X008681Y002979D01*
X008681Y002821D01*
X008792Y002710D01*
X008681Y002825D02*
X008561Y002825D01*
X008561Y002923D02*
X008681Y002923D01*
X008724Y003022D02*
X008518Y003022D01*
X008966Y002726D02*
X009276Y002726D01*
X009292Y002710D02*
X009450Y002710D01*
X009561Y002821D01*
X009561Y002979D01*
X009450Y003090D01*
X009292Y003090D01*
X009181Y002979D01*
X009181Y002821D01*
X009292Y002710D01*
X009181Y002825D02*
X009061Y002825D01*
X009061Y002923D02*
X009181Y002923D01*
X009224Y003022D02*
X009018Y003022D01*
X009466Y002726D02*
X009776Y002726D01*
X009792Y002710D02*
X009950Y002710D01*
X010061Y002821D01*
X010061Y002979D01*
X009950Y003090D01*
X009792Y003090D01*
X009681Y002979D01*
X009681Y002821D01*
X009792Y002710D01*
X009681Y002825D02*
X009561Y002825D01*
X009561Y002923D02*
X009681Y002923D01*
X009724Y003022D02*
X009518Y003022D01*
X009966Y002726D02*
X010276Y002726D01*
X010292Y002710D02*
X010450Y002710D01*
X010561Y002821D01*
X010561Y002979D01*
X010450Y003090D01*
X010292Y003090D01*
X010181Y002979D01*
X010181Y002821D01*
X010292Y002710D01*
X010181Y002825D02*
X010061Y002825D01*
X010061Y002923D02*
X010181Y002923D01*
X010224Y003022D02*
X010018Y003022D01*
X010466Y002726D02*
X010776Y002726D01*
X010681Y002825D02*
X010561Y002825D01*
X010561Y002923D02*
X010681Y002923D01*
X010724Y003022D02*
X010518Y003022D01*
X011542Y004302D02*
X012504Y004302D01*
X012731Y004992D02*
X013011Y004992D01*
X012931Y005090D02*
X012811Y005090D01*
X012811Y005189D02*
X012931Y005189D01*
X012989Y005287D02*
X012753Y005287D01*
X013745Y004795D02*
X013921Y004795D01*
X013921Y004696D02*
X013811Y004696D01*
X013811Y004598D02*
X013921Y004598D01*
X013921Y002726D02*
X013811Y002726D01*
X013811Y002628D02*
X013921Y002628D01*
X009324Y005878D02*
X008018Y005878D01*
X008111Y005977D02*
X009231Y005977D01*
X009231Y006075D02*
X008111Y006075D01*
X008066Y006174D02*
X009276Y006174D01*
X011489Y007750D02*
X013921Y007750D01*
X013921Y007848D02*
X011561Y007848D01*
X011561Y007947D02*
X013921Y007947D01*
X013921Y008045D02*
X011495Y008045D01*
X011450Y008210D02*
X011292Y008210D01*
X011181Y008321D01*
X011181Y008479D01*
X011292Y008590D01*
X011450Y008590D01*
X011561Y008479D01*
X011561Y008321D01*
X011450Y008210D01*
X011482Y008242D02*
X013921Y008242D01*
X013921Y008144D02*
X003321Y008144D01*
X003321Y008242D02*
X005760Y008242D01*
X005792Y008210D02*
X005950Y008210D01*
X006061Y008321D01*
X006061Y008479D01*
X005950Y008590D01*
X005792Y008590D01*
X005681Y008479D01*
X005681Y008321D01*
X005792Y008210D01*
X005681Y008341D02*
X003321Y008341D01*
X003321Y008439D02*
X005681Y008439D01*
X005740Y008538D02*
X004777Y008538D01*
X004811Y008571D02*
X004700Y008460D01*
X004542Y008460D01*
X004431Y008571D01*
X004431Y008729D01*
X004542Y008840D01*
X004700Y008840D01*
X004811Y008729D01*
X004811Y008571D01*
X004811Y008636D02*
X012431Y008636D01*
X012431Y008571D02*
X012542Y008460D01*
X012700Y008460D01*
X012811Y008571D01*
X012811Y008729D01*
X012700Y008840D01*
X012542Y008840D01*
X012431Y008729D01*
X012431Y008571D01*
X012465Y008538D02*
X011502Y008538D01*
X011561Y008439D02*
X013921Y008439D01*
X013921Y008341D02*
X011561Y008341D01*
X011260Y008242D02*
X010982Y008242D01*
X010950Y008210D02*
X011061Y008321D01*
X011061Y008479D01*
X010950Y008590D01*
X010792Y008590D01*
X010681Y008479D01*
X010681Y008321D01*
X010792Y008210D01*
X010950Y008210D01*
X011061Y008341D02*
X011181Y008341D01*
X011181Y008439D02*
X011061Y008439D01*
X011002Y008538D02*
X011240Y008538D01*
X010740Y008538D02*
X010502Y008538D01*
X010450Y008590D02*
X010292Y008590D01*
X010181Y008479D01*
X010181Y008321D01*
X010292Y008210D01*
X010450Y008210D01*
X010561Y008321D01*
X010561Y008479D01*
X010450Y008590D01*
X010240Y008538D02*
X010002Y008538D01*
X009950Y008590D02*
X010061Y008479D01*
X010061Y008321D01*
X009950Y008210D01*
X009792Y008210D01*
X009681Y008321D01*
X009681Y008479D01*
X009792Y008590D01*
X009950Y008590D01*
X009740Y008538D02*
X009502Y008538D01*
X009450Y008590D02*
X009561Y008479D01*
X009561Y008321D01*
X009450Y008210D01*
X009292Y008210D01*
X009181Y008321D01*
X009181Y008479D01*
X009292Y008590D01*
X009450Y008590D01*
X009240Y008538D02*
X009002Y008538D01*
X008950Y008590D02*
X009061Y008479D01*
X009061Y008321D01*
X008950Y008210D01*
X008792Y008210D01*
X008681Y008321D01*
X008681Y008479D01*
X008792Y008590D01*
X008950Y008590D01*
X008740Y008538D02*
X008502Y008538D01*
X008450Y008590D02*
X008561Y008479D01*
X008561Y008321D01*
X008450Y008210D01*
X008292Y008210D01*
X008181Y008321D01*
X008181Y008479D01*
X008292Y008590D01*
X008450Y008590D01*
X008561Y008439D02*
X008681Y008439D01*
X008681Y008341D02*
X008561Y008341D01*
X008482Y008242D02*
X008760Y008242D01*
X008982Y008242D02*
X009260Y008242D01*
X009181Y008341D02*
X009061Y008341D01*
X009061Y008439D02*
X009181Y008439D01*
X009482Y008242D02*
X009760Y008242D01*
X009681Y008341D02*
X009561Y008341D01*
X009561Y008439D02*
X009681Y008439D01*
X009982Y008242D02*
X010260Y008242D01*
X010181Y008341D02*
X010061Y008341D01*
X010061Y008439D02*
X010181Y008439D01*
X010482Y008242D02*
X010760Y008242D01*
X010681Y008341D02*
X010561Y008341D01*
X010561Y008439D02*
X010681Y008439D01*
X011042Y009460D02*
X011200Y009460D01*
X011311Y009571D01*
X011311Y009729D01*
X011200Y009840D01*
X011042Y009840D01*
X010931Y009729D01*
X010931Y009571D01*
X011042Y009460D01*
X010980Y009523D02*
X006262Y009523D01*
X006311Y009571D02*
X006200Y009460D01*
X006042Y009460D01*
X005931Y009571D01*
X005931Y009729D01*
X006042Y009840D01*
X006200Y009840D01*
X006311Y009729D01*
X006311Y009571D01*
X006311Y009621D02*
X010931Y009621D01*
X010931Y009720D02*
X006311Y009720D01*
X006222Y009818D02*
X011020Y009818D01*
X011042Y009960D02*
X011200Y009960D01*
X011311Y010071D01*
X011311Y010229D01*
X011200Y010340D01*
X011042Y010340D01*
X010931Y010229D01*
X010931Y010071D01*
X011042Y009960D01*
X010987Y010015D02*
X006255Y010015D01*
X006200Y009960D02*
X006311Y010071D01*
X006311Y010229D01*
X006200Y010340D01*
X006042Y010340D01*
X005931Y010229D01*
X005931Y010071D01*
X006042Y009960D01*
X006200Y009960D01*
X005987Y010015D02*
X003755Y010015D01*
X003700Y009960D02*
X003542Y009960D01*
X003431Y010071D01*
X003431Y010229D01*
X003542Y010340D01*
X003700Y010340D01*
X003811Y010229D01*
X003811Y010071D01*
X003700Y009960D01*
X003700Y009840D02*
X003542Y009840D01*
X003431Y009729D01*
X003431Y009571D01*
X003542Y009460D01*
X003700Y009460D01*
X003811Y009571D01*
X003811Y009729D01*
X003700Y009840D01*
X003722Y009818D02*
X004520Y009818D01*
X004542Y009840D02*
X004431Y009729D01*
X004431Y009571D01*
X004542Y009460D01*
X004700Y009460D01*
X004811Y009571D01*
X004811Y009729D01*
X004700Y009840D01*
X004542Y009840D01*
X004431Y009720D02*
X003811Y009720D01*
X003811Y009621D02*
X004431Y009621D01*
X004480Y009523D02*
X003762Y009523D01*
X003480Y009523D02*
X003321Y009523D01*
X003321Y009621D02*
X003431Y009621D01*
X003431Y009720D02*
X003321Y009720D01*
X003321Y009818D02*
X003520Y009818D01*
X003321Y009917D02*
X013921Y009917D01*
X013921Y010015D02*
X013755Y010015D01*
X013700Y009960D02*
X013542Y009960D01*
X013431Y010071D01*
X013431Y010229D01*
X013542Y010340D01*
X013700Y010340D01*
X013811Y010229D01*
X013811Y010071D01*
X013700Y009960D01*
X013700Y009840D02*
X013542Y009840D01*
X013431Y009729D01*
X013431Y009571D01*
X013542Y009460D01*
X013700Y009460D01*
X013811Y009571D01*
X013811Y009729D01*
X013700Y009840D01*
X013722Y009818D02*
X013921Y009818D01*
X013921Y009720D02*
X013811Y009720D01*
X013811Y009621D02*
X013921Y009621D01*
X013921Y009523D02*
X013762Y009523D01*
X013921Y009424D02*
X003321Y009424D01*
X003321Y009326D02*
X003528Y009326D01*
X003542Y009340D02*
X003431Y009229D01*
X003431Y009071D01*
X003542Y008960D01*
X003700Y008960D01*
X003811Y009071D01*
X003811Y009229D01*
X003700Y009340D01*
X003542Y009340D01*
X003431Y009227D02*
X003321Y009227D01*
X003321Y009129D02*
X003431Y009129D01*
X003472Y009030D02*
X003321Y009030D01*
X003321Y008932D02*
X013921Y008932D01*
X013921Y009030D02*
X013770Y009030D01*
X013811Y009071D02*
X013700Y008960D01*
X013542Y008960D01*
X013431Y009071D01*
X013431Y009229D01*
X013542Y009340D01*
X013700Y009340D01*
X013811Y009229D01*
X013811Y009071D01*
X013811Y009129D02*
X013921Y009129D01*
X013921Y009227D02*
X013811Y009227D01*
X013714Y009326D02*
X013921Y009326D01*
X013528Y009326D02*
X012714Y009326D01*
X012700Y009340D02*
X012542Y009340D01*
X012431Y009229D01*
X012431Y009071D01*
X012542Y008960D01*
X012700Y008960D01*
X012811Y009071D01*
X012811Y009229D01*
X012700Y009340D01*
X012700Y009460D02*
X012542Y009460D01*
X012431Y009571D01*
X012431Y009729D01*
X012542Y009840D01*
X012700Y009840D01*
X012811Y009729D01*
X012811Y009571D01*
X012700Y009460D01*
X012762Y009523D02*
X013480Y009523D01*
X013431Y009621D02*
X012811Y009621D01*
X012811Y009720D02*
X013431Y009720D01*
X013520Y009818D02*
X012722Y009818D01*
X012520Y009818D02*
X012222Y009818D01*
X012200Y009840D02*
X012042Y009840D01*
X011931Y009729D01*
X011931Y009571D01*
X012042Y009460D01*
X012200Y009460D01*
X012311Y009571D01*
X012311Y009729D01*
X012200Y009840D01*
X012311Y009720D02*
X012431Y009720D01*
X012431Y009621D02*
X012311Y009621D01*
X012262Y009523D02*
X012480Y009523D01*
X012528Y009326D02*
X004714Y009326D01*
X004700Y009340D02*
X004542Y009340D01*
X004431Y009229D01*
X004431Y009071D01*
X004542Y008960D01*
X004700Y008960D01*
X004811Y009071D01*
X004811Y009229D01*
X004700Y009340D01*
X004811Y009227D02*
X012431Y009227D01*
X012431Y009129D02*
X004811Y009129D01*
X004770Y009030D02*
X012472Y009030D01*
X012535Y008833D02*
X004707Y008833D01*
X004805Y008735D02*
X012437Y008735D01*
X012707Y008833D02*
X013035Y008833D01*
X013042Y008840D02*
X012931Y008729D01*
X012931Y008571D01*
X013042Y008460D01*
X013200Y008460D01*
X013311Y008571D01*
X013311Y008729D01*
X013200Y008840D01*
X013042Y008840D01*
X012937Y008735D02*
X012805Y008735D01*
X012811Y008636D02*
X012931Y008636D01*
X012965Y008538D02*
X012777Y008538D01*
X013277Y008538D02*
X013465Y008538D01*
X013431Y008571D02*
X013542Y008460D01*
X013700Y008460D01*
X013811Y008571D01*
X013811Y008729D01*
X013700Y008840D01*
X013542Y008840D01*
X013431Y008729D01*
X013431Y008571D01*
X013431Y008636D02*
X013311Y008636D01*
X013305Y008735D02*
X013437Y008735D01*
X013535Y008833D02*
X013207Y008833D01*
X013472Y009030D02*
X012770Y009030D01*
X012811Y009129D02*
X013431Y009129D01*
X013431Y009227D02*
X012811Y009227D01*
X011980Y009523D02*
X011762Y009523D01*
X011811Y009571D02*
X011700Y009460D01*
X011542Y009460D01*
X011431Y009571D01*
X011431Y009729D01*
X011542Y009840D01*
X011700Y009840D01*
X011811Y009729D01*
X011811Y009571D01*
X011811Y009621D02*
X011931Y009621D01*
X011931Y009720D02*
X011811Y009720D01*
X011722Y009818D02*
X012020Y009818D01*
X011520Y009818D02*
X011222Y009818D01*
X011311Y009720D02*
X011431Y009720D01*
X011431Y009621D02*
X011311Y009621D01*
X011262Y009523D02*
X011480Y009523D01*
X011255Y010015D02*
X013487Y010015D01*
X013431Y010114D02*
X011311Y010114D01*
X011311Y010212D02*
X013431Y010212D01*
X013513Y010311D02*
X011229Y010311D01*
X011200Y010460D02*
X011311Y010571D01*
X011311Y010729D01*
X011200Y010840D01*
X011042Y010840D01*
X010931Y010729D01*
X010931Y010571D01*
X011042Y010460D01*
X011200Y010460D01*
X011247Y010508D02*
X013495Y010508D01*
X013542Y010460D02*
X013700Y010460D01*
X013811Y010571D01*
X013811Y010729D01*
X013700Y010840D01*
X013542Y010840D01*
X013431Y010729D01*
X013431Y010571D01*
X013542Y010460D01*
X013431Y010606D02*
X011311Y010606D01*
X011311Y010705D02*
X013431Y010705D01*
X013505Y010803D02*
X011237Y010803D01*
X011200Y010960D02*
X011311Y011071D01*
X011311Y011229D01*
X011200Y011340D01*
X011042Y011340D01*
X010931Y011229D01*
X010931Y011071D01*
X011042Y010960D01*
X011200Y010960D01*
X011240Y011000D02*
X011502Y011000D01*
X011542Y010960D02*
X011700Y010960D01*
X011811Y011071D01*
X011811Y011229D01*
X011700Y011340D01*
X011542Y011340D01*
X011431Y011229D01*
X011431Y011071D01*
X011542Y010960D01*
X011431Y011099D02*
X011311Y011099D01*
X011311Y011197D02*
X011431Y011197D01*
X011498Y011296D02*
X011244Y011296D01*
X010998Y011296D02*
X006244Y011296D01*
X006200Y011340D02*
X006311Y011229D01*
X006311Y011071D01*
X006200Y010960D01*
X006042Y010960D01*
X005931Y011071D01*
X005931Y011229D01*
X006042Y011340D01*
X006200Y011340D01*
X006311Y011197D02*
X010931Y011197D01*
X010931Y011099D02*
X006311Y011099D01*
X006240Y011000D02*
X011002Y011000D01*
X011005Y010803D02*
X006237Y010803D01*
X006200Y010840D02*
X006311Y010729D01*
X006311Y010571D01*
X006200Y010460D01*
X006042Y010460D01*
X005931Y010571D01*
X005931Y010729D01*
X006042Y010840D01*
X006200Y010840D01*
X006311Y010705D02*
X010931Y010705D01*
X010931Y010606D02*
X006311Y010606D01*
X006247Y010508D02*
X010995Y010508D01*
X011013Y010311D02*
X006229Y010311D01*
X006311Y010212D02*
X010931Y010212D01*
X010931Y010114D02*
X006311Y010114D01*
X006013Y010311D02*
X003729Y010311D01*
X003811Y010212D02*
X005931Y010212D01*
X005931Y010114D02*
X003811Y010114D01*
X003487Y010015D02*
X003321Y010015D01*
X003321Y010114D02*
X003431Y010114D01*
X003431Y010212D02*
X003321Y010212D01*
X003321Y010311D02*
X003513Y010311D01*
X003542Y010460D02*
X003700Y010460D01*
X003811Y010571D01*
X003811Y010729D01*
X003700Y010840D01*
X003542Y010840D01*
X003431Y010729D01*
X003431Y010571D01*
X003542Y010460D01*
X003495Y010508D02*
X003321Y010508D01*
X003321Y010606D02*
X003431Y010606D01*
X003431Y010705D02*
X003321Y010705D01*
X003321Y010803D02*
X003505Y010803D01*
X003542Y010960D02*
X003700Y010960D01*
X003811Y011071D01*
X003811Y011229D01*
X003700Y011340D01*
X003542Y011340D01*
X003431Y011229D01*
X003431Y011071D01*
X003542Y010960D01*
X003502Y011000D02*
X003321Y011000D01*
X003321Y010902D02*
X013921Y010902D01*
X013921Y011000D02*
X013740Y011000D01*
X013700Y010960D02*
X013811Y011071D01*
X013811Y011229D01*
X013700Y011340D01*
X013542Y011340D01*
X013431Y011229D01*
X013431Y011071D01*
X013542Y010960D01*
X013700Y010960D01*
X013737Y010803D02*
X013921Y010803D01*
X013921Y010705D02*
X013811Y010705D01*
X013811Y010606D02*
X013921Y010606D01*
X013921Y010508D02*
X013747Y010508D01*
X013921Y010409D02*
X003321Y010409D01*
X003747Y010508D02*
X005995Y010508D01*
X005931Y010606D02*
X003811Y010606D01*
X003811Y010705D02*
X005931Y010705D01*
X006005Y010803D02*
X003737Y010803D01*
X003740Y011000D02*
X004002Y011000D01*
X004042Y010960D02*
X004200Y010960D01*
X004311Y011071D01*
X004311Y011229D01*
X004200Y011340D01*
X004042Y011340D01*
X003931Y011229D01*
X003931Y011071D01*
X004042Y010960D01*
X003931Y011099D02*
X003811Y011099D01*
X003811Y011197D02*
X003931Y011197D01*
X003998Y011296D02*
X003744Y011296D01*
X003498Y011296D02*
X003321Y011296D01*
X003321Y011394D02*
X013921Y011394D01*
X013921Y011296D02*
X013744Y011296D01*
X013811Y011197D02*
X013921Y011197D01*
X013921Y011099D02*
X013811Y011099D01*
X013502Y011000D02*
X013240Y011000D01*
X013200Y010960D02*
X013311Y011071D01*
X013311Y011229D01*
X013200Y011340D01*
X013042Y011340D01*
X012931Y011229D01*
X012931Y011071D01*
X013042Y010960D01*
X013200Y010960D01*
X013311Y011099D02*
X013431Y011099D01*
X013431Y011197D02*
X013311Y011197D01*
X013244Y011296D02*
X013498Y011296D01*
X012998Y011296D02*
X012744Y011296D01*
X012700Y011340D02*
X012542Y011340D01*
X012431Y011229D01*
X012431Y011071D01*
X012542Y010960D01*
X012700Y010960D01*
X012811Y011071D01*
X012811Y011229D01*
X012700Y011340D01*
X012811Y011197D02*
X012931Y011197D01*
X012931Y011099D02*
X012811Y011099D01*
X012740Y011000D02*
X013002Y011000D01*
X012502Y011000D02*
X012240Y011000D01*
X012200Y010960D02*
X012311Y011071D01*
X012311Y011229D01*
X012200Y011340D01*
X012042Y011340D01*
X011931Y011229D01*
X011931Y011071D01*
X012042Y010960D01*
X012200Y010960D01*
X012311Y011099D02*
X012431Y011099D01*
X012431Y011197D02*
X012311Y011197D01*
X012244Y011296D02*
X012498Y011296D01*
X011998Y011296D02*
X011744Y011296D01*
X011811Y011197D02*
X011931Y011197D01*
X011931Y011099D02*
X011811Y011099D01*
X011740Y011000D02*
X012002Y011000D01*
X013729Y010311D02*
X013921Y010311D01*
X013921Y010212D02*
X013811Y010212D01*
X013811Y010114D02*
X013921Y010114D01*
X013921Y008833D02*
X013707Y008833D01*
X013805Y008735D02*
X013921Y008735D01*
X013921Y008636D02*
X013811Y008636D01*
X013777Y008538D02*
X013921Y008538D01*
X013921Y007257D02*
X012283Y007257D01*
X012361Y007159D02*
X013921Y007159D01*
X013921Y007060D02*
X012361Y007060D01*
X012301Y006962D02*
X013921Y006962D01*
X012067Y006765D02*
X011925Y006765D01*
X011951Y006962D02*
X012041Y006962D01*
X012059Y007257D02*
X011933Y007257D01*
X011959Y006469D02*
X012033Y006469D01*
X008260Y008242D02*
X007982Y008242D01*
X007950Y008210D02*
X008061Y008321D01*
X008061Y008479D01*
X007950Y008590D01*
X007792Y008590D01*
X007681Y008479D01*
X007681Y008321D01*
X007792Y008210D01*
X007950Y008210D01*
X008061Y008341D02*
X008181Y008341D01*
X008181Y008439D02*
X008061Y008439D01*
X008002Y008538D02*
X008240Y008538D01*
X007760Y008242D02*
X007482Y008242D01*
X007450Y008210D02*
X007561Y008321D01*
X007561Y008479D01*
X007450Y008590D01*
X007292Y008590D01*
X007181Y008479D01*
X007181Y008321D01*
X007292Y008210D01*
X007450Y008210D01*
X007561Y008341D02*
X007681Y008341D01*
X007681Y008439D02*
X007561Y008439D01*
X007502Y008538D02*
X007740Y008538D01*
X007260Y008242D02*
X006982Y008242D01*
X006950Y008210D02*
X007061Y008321D01*
X007061Y008479D01*
X006950Y008590D01*
X006792Y008590D01*
X006681Y008479D01*
X006681Y008321D01*
X006792Y008210D01*
X006950Y008210D01*
X007061Y008341D02*
X007181Y008341D01*
X007181Y008439D02*
X007061Y008439D01*
X007002Y008538D02*
X007240Y008538D01*
X006740Y008538D02*
X006502Y008538D01*
X006450Y008590D02*
X006292Y008590D01*
X006181Y008479D01*
X006181Y008321D01*
X006292Y008210D01*
X006450Y008210D01*
X006561Y008321D01*
X006561Y008479D01*
X006450Y008590D01*
X006240Y008538D02*
X006002Y008538D01*
X006061Y008439D02*
X006181Y008439D01*
X006181Y008341D02*
X006061Y008341D01*
X005982Y008242D02*
X006260Y008242D01*
X006482Y008242D02*
X006760Y008242D01*
X006681Y008341D02*
X006561Y008341D01*
X006561Y008439D02*
X006681Y008439D01*
X005700Y009460D02*
X005542Y009460D01*
X005431Y009571D01*
X005431Y009729D01*
X005542Y009840D01*
X005700Y009840D01*
X005811Y009729D01*
X005811Y009571D01*
X005700Y009460D01*
X005762Y009523D02*
X005980Y009523D01*
X005931Y009621D02*
X005811Y009621D01*
X005811Y009720D02*
X005931Y009720D01*
X006020Y009818D02*
X005722Y009818D01*
X005520Y009818D02*
X005222Y009818D01*
X005200Y009840D02*
X005042Y009840D01*
X004931Y009729D01*
X004931Y009571D01*
X005042Y009460D01*
X005200Y009460D01*
X005311Y009571D01*
X005311Y009729D01*
X005200Y009840D01*
X005311Y009720D02*
X005431Y009720D01*
X005431Y009621D02*
X005311Y009621D01*
X005262Y009523D02*
X005480Y009523D01*
X005020Y009818D02*
X004722Y009818D01*
X004811Y009720D02*
X004931Y009720D01*
X004931Y009621D02*
X004811Y009621D01*
X004762Y009523D02*
X004980Y009523D01*
X004528Y009326D02*
X003714Y009326D01*
X003811Y009227D02*
X004431Y009227D01*
X004431Y009129D02*
X003811Y009129D01*
X003770Y009030D02*
X004472Y009030D01*
X004535Y008833D02*
X004207Y008833D01*
X004200Y008840D02*
X004042Y008840D01*
X003931Y008729D01*
X003931Y008571D01*
X004042Y008460D01*
X004200Y008460D01*
X004311Y008571D01*
X004311Y008729D01*
X004200Y008840D01*
X004305Y008735D02*
X004437Y008735D01*
X004431Y008636D02*
X004311Y008636D01*
X004277Y008538D02*
X004465Y008538D01*
X003965Y008538D02*
X003777Y008538D01*
X003811Y008571D02*
X003700Y008460D01*
X003542Y008460D01*
X003431Y008571D01*
X003431Y008729D01*
X003542Y008840D01*
X003700Y008840D01*
X003811Y008729D01*
X003811Y008571D01*
X003811Y008636D02*
X003931Y008636D01*
X003937Y008735D02*
X003805Y008735D01*
X003707Y008833D02*
X004035Y008833D01*
X003535Y008833D02*
X003321Y008833D01*
X003321Y008735D02*
X003437Y008735D01*
X003431Y008636D02*
X003321Y008636D01*
X003321Y008538D02*
X003465Y008538D01*
X003321Y007257D02*
X004909Y007257D01*
X004831Y007159D02*
X003321Y007159D01*
X003321Y007060D02*
X004831Y007060D01*
X004891Y006962D02*
X003321Y006962D01*
X005957Y005583D02*
X006231Y005583D01*
X006268Y005484D02*
X006056Y005484D01*
X006061Y005386D02*
X006581Y005386D01*
X006574Y005484D02*
X006581Y005484D01*
X006611Y005583D02*
X006635Y005583D01*
X006665Y005287D02*
X006027Y005287D01*
X005700Y010960D02*
X005542Y010960D01*
X005431Y011071D01*
X005431Y011229D01*
X005542Y011340D01*
X005700Y011340D01*
X005811Y011229D01*
X005811Y011071D01*
X005700Y010960D01*
X005740Y011000D02*
X006002Y011000D01*
X005931Y011099D02*
X005811Y011099D01*
X005811Y011197D02*
X005931Y011197D01*
X005998Y011296D02*
X005744Y011296D01*
X005498Y011296D02*
X005244Y011296D01*
X005200Y011340D02*
X005042Y011340D01*
X004931Y011229D01*
X004931Y011071D01*
X005042Y010960D01*
X005200Y010960D01*
X005311Y011071D01*
X005311Y011229D01*
X005200Y011340D01*
X005311Y011197D02*
X005431Y011197D01*
X005431Y011099D02*
X005311Y011099D01*
X005240Y011000D02*
X005502Y011000D01*
X005002Y011000D02*
X004740Y011000D01*
X004700Y010960D02*
X004811Y011071D01*
X004811Y011229D01*
X004700Y011340D01*
X004542Y011340D01*
X004431Y011229D01*
X004431Y011071D01*
X004542Y010960D01*
X004700Y010960D01*
X004811Y011099D02*
X004931Y011099D01*
X004931Y011197D02*
X004811Y011197D01*
X004744Y011296D02*
X004998Y011296D01*
X004498Y011296D02*
X004244Y011296D01*
X004311Y011197D02*
X004431Y011197D01*
X004431Y011099D02*
X004311Y011099D01*
X004240Y011000D02*
X004502Y011000D01*
X003431Y011099D02*
X003321Y011099D01*
X003321Y011197D02*
X003431Y011197D01*
M02*
